<svg width="39" height="35" viewBox="0 0 39 35" fill="none" xmlns="http://www.w3.org/2000/svg">
<g filter="url(#filter0_bi_50_837)">
<path d="M24.4534 17.978C28.8717 17.978 32.4534 14.3962 32.4534 9.97797C32.4534 5.55969 28.8717 1.97797 24.4534 1.97797C20.0351 1.97797 16.4534 5.55969 16.4534 9.97797C16.4534 14.3962 20.0351 17.978 24.4534 17.978Z" fill="#1B1B1B" fill-opacity="0.3"/>
<path d="M24.4534 23.3113C19.4212 23.3113 14.9486 26.0572 12.1142 30.3128C11.4933 31.2451 11.1829 31.7112 11.2186 32.3067C11.2464 32.7704 11.5504 33.3379 11.9208 33.6181C12.3966 33.978 13.051 33.978 14.3598 33.978H34.547C35.8557 33.978 36.5101 33.978 36.9859 33.6181C37.3564 33.3379 37.6603 32.7704 37.6882 32.3067C37.7239 31.7112 37.4134 31.2451 36.7925 30.3128C33.9582 26.0572 29.4856 23.3113 24.4534 23.3113Z" fill="#1B1B1B" fill-opacity="0.3"/>
<path d="M24.4534 18.478C29.1478 18.478 32.9534 14.6724 32.9534 9.97797C32.9534 5.28355 29.1478 1.47797 24.4534 1.47797C19.759 1.47797 15.9534 5.28355 15.9534 9.97797C15.9534 14.6724 19.759 18.478 24.4534 18.478ZM24.4534 22.8113C19.2291 22.8113 14.6105 25.6627 11.6981 30.0356L11.6807 30.0617C11.385 30.5056 11.1366 30.8786 10.9712 31.2159C10.7939 31.5775 10.6951 31.9298 10.7195 32.3367C10.7387 32.6571 10.8494 32.9851 11.0004 33.2672C11.1515 33.5494 11.3632 33.8233 11.6192 34.0169C11.9549 34.2708 12.3354 34.3791 12.7702 34.4296C13.1858 34.478 13.7009 34.478 14.3299 34.478H14.3598H34.547H34.5769C35.2058 34.478 35.7209 34.478 36.1366 34.4296C36.5714 34.3791 36.9519 34.2708 37.2875 34.0169C37.5436 33.8233 37.7553 33.5494 37.9063 33.2672C38.0574 32.9851 38.168 32.6571 38.1873 32.3367C38.2117 31.9298 38.1128 31.5775 37.9355 31.2159C37.7701 30.8786 37.5217 30.5056 37.226 30.0616L37.2087 30.0356C34.2963 25.6627 29.6776 22.8113 24.4534 22.8113Z" stroke="#1C1C1C"/>
<path d="M24.4534 18.478C29.1478 18.478 32.9534 14.6724 32.9534 9.97797C32.9534 5.28355 29.1478 1.47797 24.4534 1.47797C19.759 1.47797 15.9534 5.28355 15.9534 9.97797C15.9534 14.6724 19.759 18.478 24.4534 18.478ZM24.4534 22.8113C19.2291 22.8113 14.6105 25.6627 11.6981 30.0356L11.6807 30.0617C11.385 30.5056 11.1366 30.8786 10.9712 31.2159C10.7939 31.5775 10.6951 31.9298 10.7195 32.3367C10.7387 32.6571 10.8494 32.9851 11.0004 33.2672C11.1515 33.5494 11.3632 33.8233 11.6192 34.0169C11.9549 34.2708 12.3354 34.3791 12.7702 34.4296C13.1858 34.478 13.7009 34.478 14.3299 34.478H14.3598H34.547H34.5769C35.2058 34.478 35.7209 34.478 36.1366 34.4296C36.5714 34.3791 36.9519 34.2708 37.2875 34.0169C37.5436 33.8233 37.7553 33.5494 37.9063 33.2672C38.0574 32.9851 38.168 32.6571 38.1873 32.3367C38.2117 31.9298 38.1128 31.5775 37.9355 31.2159C37.7701 30.8786 37.5217 30.5056 37.226 30.0616L37.2087 30.0356C34.2963 25.6627 29.6776 22.8113 24.4534 22.8113Z" stroke="url(#paint0_linear_50_837)" stroke-opacity="0.05"/>
</g>
<g filter="url(#filter1_bi_50_837)">
<path d="M14.5466 17.978C18.9649 17.978 22.5466 14.3962 22.5466 9.97797C22.5466 5.55969 18.9649 1.97797 14.5466 1.97797C10.1284 1.97797 6.54664 5.55969 6.54664 9.97797C6.54664 14.3962 10.1284 17.978 14.5466 17.978Z" fill="#1B1B1B" fill-opacity="0.3"/>
<path d="M14.5466 23.3113C9.51441 23.3113 5.04182 26.0572 2.20749 30.3128C1.58657 31.2451 1.27611 31.7112 1.31185 32.3067C1.33968 32.7704 1.64361 33.3379 2.01409 33.6181C2.48989 33.978 3.14428 33.978 4.45305 33.978H24.6402C25.949 33.978 26.6034 33.978 27.0792 33.6181C27.4497 33.3379 27.7536 32.7704 27.7814 32.3067C27.8172 31.7112 27.5067 31.2451 26.8858 30.3128C24.0515 26.0572 19.5789 23.3113 14.5466 23.3113Z" fill="#1B1B1B" fill-opacity="0.3"/>
<path d="M14.5466 18.478C19.2411 18.478 23.0466 14.6724 23.0466 9.97797C23.0466 5.28355 19.2411 1.47797 14.5466 1.47797C9.85222 1.47797 6.04664 5.28355 6.04664 9.97797C6.04664 14.6724 9.85222 18.478 14.5466 18.478ZM14.5466 22.8113C9.3224 22.8113 4.70377 25.6627 1.79134 30.0356L1.77399 30.0617C1.4783 30.5056 1.22988 30.8786 1.06448 31.2159C0.887194 31.5775 0.788331 31.9298 0.812753 32.3367C0.831988 32.6571 0.942627 32.9851 1.0937 33.2672C1.24476 33.5494 1.45643 33.8233 1.71249 34.0169C2.04814 34.2708 2.42866 34.3791 2.86343 34.4296C3.27909 34.478 3.7942 34.478 4.42317 34.478H4.45305H24.6402H24.6701C25.2991 34.478 25.8142 34.478 26.2298 34.4296C26.6646 34.3791 27.0451 34.2708 27.3808 34.0169C27.6368 33.8233 27.8485 33.5494 27.9996 33.2672C28.1507 32.9851 28.2613 32.6571 28.2805 32.3367C28.3049 31.9298 28.2061 31.5775 28.0288 31.2159C27.8634 30.8786 27.615 30.5056 27.3193 30.0616L27.3019 30.0356C24.3895 25.6627 19.7709 22.8113 14.5466 22.8113Z" stroke="#1C1C1C"/>
<path d="M14.5466 18.478C19.2411 18.478 23.0466 14.6724 23.0466 9.97797C23.0466 5.28355 19.2411 1.47797 14.5466 1.47797C9.85222 1.47797 6.04664 5.28355 6.04664 9.97797C6.04664 14.6724 9.85222 18.478 14.5466 18.478ZM14.5466 22.8113C9.3224 22.8113 4.70377 25.6627 1.79134 30.0356L1.77399 30.0617C1.4783 30.5056 1.22988 30.8786 1.06448 31.2159C0.887194 31.5775 0.788331 31.9298 0.812753 32.3367C0.831988 32.6571 0.942627 32.9851 1.0937 33.2672C1.24476 33.5494 1.45643 33.8233 1.71249 34.0169C2.04814 34.2708 2.42866 34.3791 2.86343 34.4296C3.27909 34.478 3.7942 34.478 4.42317 34.478H4.45305H24.6402H24.6701C25.2991 34.478 25.8142 34.478 26.2298 34.4296C26.6646 34.3791 27.0451 34.2708 27.3808 34.0169C27.6368 33.8233 27.8485 33.5494 27.9996 33.2672C28.1507 32.9851 28.2613 32.6571 28.2805 32.3367C28.3049 31.9298 28.2061 31.5775 28.0288 31.2159C27.8634 30.8786 27.615 30.5056 27.3193 30.0616L27.3019 30.0356C24.3895 25.6627 19.7709 22.8113 14.5466 22.8113Z" stroke="url(#paint1_linear_50_837)" stroke-opacity="0.21"/>
</g>
<defs>
<filter id="filter0_bi_50_837" x="6.21582" y="-3.02203" width="36.4751" height="42" filterUnits="userSpaceOnUse" color-interpolation-filters="sRGB">
<feFlood flood-opacity="0" result="BackgroundImageFix"/>
<feGaussianBlur in="BackgroundImageFix" stdDeviation="2"/>
<feComposite in2="SourceAlpha" operator="in" result="effect1_backgroundBlur_50_837"/>
<feBlend mode="normal" in="SourceGraphic" in2="effect1_backgroundBlur_50_837" result="shape"/>
<feColorMatrix in="SourceAlpha" type="matrix" values="0 0 0 0 0 0 0 0 0 0 0 0 0 0 0 0 0 0 127 0" result="hardAlpha"/>
<feOffset dy="4"/>
<feGaussianBlur stdDeviation="2"/>
<feComposite in2="hardAlpha" operator="arithmetic" k2="-1" k3="1"/>
<feColorMatrix type="matrix" values="0 0 0 0 0.0881633 0 0 0 0 0.108972 0 0 0 0 0.0933655 0 0 0 0.4 0"/>
<feBlend mode="normal" in2="shape" result="effect2_innerShadow_50_837"/>
</filter>
<filter id="filter1_bi_50_837" x="-3.69092" y="-3.02203" width="36.4751" height="42" filterUnits="userSpaceOnUse" color-interpolation-filters="sRGB">
<feFlood flood-opacity="0" result="BackgroundImageFix"/>
<feGaussianBlur in="BackgroundImageFix" stdDeviation="2"/>
<feComposite in2="SourceAlpha" operator="in" result="effect1_backgroundBlur_50_837"/>
<feBlend mode="normal" in="SourceGraphic" in2="effect1_backgroundBlur_50_837" result="shape"/>
<feColorMatrix in="SourceAlpha" type="matrix" values="0 0 0 0 0 0 0 0 0 0 0 0 0 0 0 0 0 0 127 0" result="hardAlpha"/>
<feOffset dy="4"/>
<feGaussianBlur stdDeviation="2"/>
<feComposite in2="hardAlpha" operator="arithmetic" k2="-1" k3="1"/>
<feColorMatrix type="matrix" values="0 0 0 0 0.0881633 0 0 0 0 0.108972 0 0 0 0 0.0933655 0 0 0 0.4 0"/>
<feBlend mode="normal" in2="shape" result="effect2_innerShadow_50_837"/>
</filter>
<linearGradient id="paint0_linear_50_837" x1="24.4534" y1="33.978" x2="24.4534" y2="1.97797" gradientUnits="userSpaceOnUse">
<stop stop-color="#CCCCCC" stop-opacity="0"/>
<stop offset="1" stop-color="#CCCCCC"/>
</linearGradient>
<linearGradient id="paint1_linear_50_837" x1="14.5466" y1="33.978" x2="14.5466" y2="1.97797" gradientUnits="userSpaceOnUse">
<stop stop-color="#CCCCCC" stop-opacity="0"/>
<stop offset="1" stop-color="#CCCCCC"/>
</linearGradient>
</defs>
</svg>
