<svg width="804" height="755" viewBox="0 0 804 755" fill="none" xmlns="http://www.w3.org/2000/svg">
<g opacity="0.55">
<g filter="url(#filter0_b_215_59)">
<mask id="path-1-outside-1_215_59" maskUnits="userSpaceOnUse" x="0" y="227" width="102" height="461" fill="black">
<rect fill="white" y="227" width="102" height="461"/>
<path d="M1 227H101V688H1V227Z"/>
</mask>
<path d="M1 227H101V688H1V227Z" fill="url(#paint0_linear_215_59)" fill-opacity="0.02"/>
<path d="M100 227V688H102V227H100ZM2 688V227H0V688H2Z" fill="url(#paint1_linear_215_59)" mask="url(#path-1-outside-1_215_59)"/>
</g>
<g filter="url(#filter1_b_215_59)">
<mask id="path-3-outside-2_215_59" maskUnits="userSpaceOnUse" x="128" y="130" width="102" height="461" fill="black">
<rect fill="white" x="128" y="130" width="102" height="461"/>
<path d="M129 130H229V591H129V130Z"/>
</mask>
<path d="M129 130H229V591H129V130Z" fill="url(#paint2_linear_215_59)" fill-opacity="0.02"/>
<path d="M228 130V591H230V130H228ZM130 591V130H128V591H130Z" fill="url(#paint3_linear_215_59)" mask="url(#path-3-outside-2_215_59)"/>
</g>
<g filter="url(#filter2_b_215_59)">
<mask id="path-5-outside-3_215_59" maskUnits="userSpaceOnUse" x="256" y="66" width="102" height="461" fill="black">
<rect fill="white" x="256" y="66" width="102" height="461"/>
<path d="M257 66H357V527H257V66Z"/>
</mask>
<path d="M257 66H357V527H257V66Z" fill="url(#paint4_linear_215_59)" fill-opacity="0.02"/>
<path d="M356 66V527H358V66H356ZM258 527V66H256V527H258Z" fill="url(#paint5_linear_215_59)" mask="url(#path-5-outside-3_215_59)"/>
</g>
<g filter="url(#filter3_b_215_59)">
<mask id="path-7-outside-4_215_59" maskUnits="userSpaceOnUse" x="702" y="227" width="102" height="461" fill="black">
<rect fill="white" x="702" y="227" width="102" height="461"/>
<path d="M803 227H703V688H803V227Z"/>
</mask>
<path d="M803 227H703V688H803V227Z" fill="url(#paint6_linear_215_59)" fill-opacity="0.02"/>
<path d="M704 227V688H702V227H704ZM802 688V227H804V688H802Z" fill="url(#paint7_linear_215_59)" mask="url(#path-7-outside-4_215_59)"/>
</g>
<g filter="url(#filter4_b_215_59)">
<mask id="path-9-outside-5_215_59" maskUnits="userSpaceOnUse" x="574" y="130" width="102" height="461" fill="black">
<rect fill="white" x="574" y="130" width="102" height="461"/>
<path d="M675 130H575V591H675V130Z"/>
</mask>
<path d="M675 130H575V591H675V130Z" fill="url(#paint8_linear_215_59)" fill-opacity="0.02"/>
<path d="M576 130V591H574V130H576ZM674 591V130H676V591H674Z" fill="url(#paint9_linear_215_59)" mask="url(#path-9-outside-5_215_59)"/>
</g>
<g filter="url(#filter5_b_215_59)">
<mask id="path-11-outside-6_215_59" maskUnits="userSpaceOnUse" x="446" y="66" width="102" height="461" fill="black">
<rect fill="white" x="446" y="66" width="102" height="461"/>
<path d="M547 66H447V527H547V66Z"/>
</mask>
<path d="M547 66H447V527H547V66Z" fill="url(#paint10_linear_215_59)" fill-opacity="0.02"/>
<path d="M448 66V527H446V66H448ZM546 527V66H548V527H546Z" fill="url(#paint11_linear_215_59)" mask="url(#path-11-outside-6_215_59)"/>
</g>
</g>
<g filter="url(#filter6_f_215_59)">
<path d="M401.041 113.75L437.016 406.342L624.083 641.123H178L347.08 406.342L401.041 113.75Z" fill="url(#paint12_linear_215_59)"/>
</g>
<g style="mix-blend-mode:plus-lighter" opacity="0.8" filter="url(#filter7_f_215_59)">
<path d="M401.306 113L422.485 405.592L532.613 640.373H270L369.539 405.592L401.306 113Z" fill="url(#paint13_linear_215_59)"/>
</g>
<g filter="url(#filter8_f_215_59)">
<ellipse cx="383" cy="517.873" rx="260" ry="20.5" fill="#4DFF7E"/>
</g>
<g filter="url(#filter9_f_215_59)">
<ellipse cx="401" cy="497.5" rx="83" ry="20.5" fill="#008A27"/>
</g>
<defs>
<filter id="filter0_b_215_59" x="-4" y="223" width="110" height="469" filterUnits="userSpaceOnUse" color-interpolation-filters="sRGB">
<feFlood flood-opacity="0" result="BackgroundImageFix"/>
<feGaussianBlur in="BackgroundImageFix" stdDeviation="2"/>
<feComposite in2="SourceAlpha" operator="in" result="effect1_backgroundBlur_215_59"/>
<feBlend mode="normal" in="SourceGraphic" in2="effect1_backgroundBlur_215_59" result="shape"/>
</filter>
<filter id="filter1_b_215_59" x="124" y="126" width="110" height="469" filterUnits="userSpaceOnUse" color-interpolation-filters="sRGB">
<feFlood flood-opacity="0" result="BackgroundImageFix"/>
<feGaussianBlur in="BackgroundImageFix" stdDeviation="2"/>
<feComposite in2="SourceAlpha" operator="in" result="effect1_backgroundBlur_215_59"/>
<feBlend mode="normal" in="SourceGraphic" in2="effect1_backgroundBlur_215_59" result="shape"/>
</filter>
<filter id="filter2_b_215_59" x="252" y="62" width="110" height="469" filterUnits="userSpaceOnUse" color-interpolation-filters="sRGB">
<feFlood flood-opacity="0" result="BackgroundImageFix"/>
<feGaussianBlur in="BackgroundImageFix" stdDeviation="2"/>
<feComposite in2="SourceAlpha" operator="in" result="effect1_backgroundBlur_215_59"/>
<feBlend mode="normal" in="SourceGraphic" in2="effect1_backgroundBlur_215_59" result="shape"/>
</filter>
<filter id="filter3_b_215_59" x="698" y="223" width="110" height="469" filterUnits="userSpaceOnUse" color-interpolation-filters="sRGB">
<feFlood flood-opacity="0" result="BackgroundImageFix"/>
<feGaussianBlur in="BackgroundImageFix" stdDeviation="2"/>
<feComposite in2="SourceAlpha" operator="in" result="effect1_backgroundBlur_215_59"/>
<feBlend mode="normal" in="SourceGraphic" in2="effect1_backgroundBlur_215_59" result="shape"/>
</filter>
<filter id="filter4_b_215_59" x="570" y="126" width="110" height="469" filterUnits="userSpaceOnUse" color-interpolation-filters="sRGB">
<feFlood flood-opacity="0" result="BackgroundImageFix"/>
<feGaussianBlur in="BackgroundImageFix" stdDeviation="2"/>
<feComposite in2="SourceAlpha" operator="in" result="effect1_backgroundBlur_215_59"/>
<feBlend mode="normal" in="SourceGraphic" in2="effect1_backgroundBlur_215_59" result="shape"/>
</filter>
<filter id="filter5_b_215_59" x="442" y="62" width="110" height="469" filterUnits="userSpaceOnUse" color-interpolation-filters="sRGB">
<feFlood flood-opacity="0" result="BackgroundImageFix"/>
<feGaussianBlur in="BackgroundImageFix" stdDeviation="2"/>
<feComposite in2="SourceAlpha" operator="in" result="effect1_backgroundBlur_215_59"/>
<feBlend mode="normal" in="SourceGraphic" in2="effect1_backgroundBlur_215_59" result="shape"/>
</filter>
<filter id="filter6_f_215_59" x="65.1" y="0.849998" width="671.883" height="753.173" filterUnits="userSpaceOnUse" color-interpolation-filters="sRGB">
<feFlood flood-opacity="0" result="BackgroundImageFix"/>
<feBlend mode="normal" in="SourceGraphic" in2="BackgroundImageFix" result="shape"/>
<feGaussianBlur stdDeviation="56.45" result="effect1_foregroundBlur_215_59"/>
</filter>
<filter id="filter7_f_215_59" x="212.5" y="55.5" width="377.613" height="642.373" filterUnits="userSpaceOnUse" color-interpolation-filters="sRGB">
<feFlood flood-opacity="0" result="BackgroundImageFix"/>
<feBlend mode="normal" in="SourceGraphic" in2="BackgroundImageFix" result="shape"/>
<feGaussianBlur stdDeviation="28.75" result="effect1_foregroundBlur_215_59"/>
</filter>
<filter id="filter8_f_215_59" x="23" y="397.373" width="720" height="241" filterUnits="userSpaceOnUse" color-interpolation-filters="sRGB">
<feFlood flood-opacity="0" result="BackgroundImageFix"/>
<feBlend mode="normal" in="SourceGraphic" in2="BackgroundImageFix" result="shape"/>
<feGaussianBlur stdDeviation="50" result="effect1_foregroundBlur_215_59"/>
</filter>
<filter id="filter9_f_215_59" x="218" y="377" width="366" height="241" filterUnits="userSpaceOnUse" color-interpolation-filters="sRGB">
<feFlood flood-opacity="0" result="BackgroundImageFix"/>
<feBlend mode="normal" in="SourceGraphic" in2="BackgroundImageFix" result="shape"/>
<feGaussianBlur stdDeviation="50" result="effect1_foregroundBlur_215_59"/>
</filter>
<linearGradient id="paint0_linear_215_59" x1="51" y1="227" x2="51" y2="688" gradientUnits="userSpaceOnUse">
<stop stop-color="white" stop-opacity="0"/>
<stop offset="0.5" stop-color="white"/>
<stop offset="1" stop-color="white"/>
</linearGradient>
<linearGradient id="paint1_linear_215_59" x1="51" y1="227" x2="51" y2="688" gradientUnits="userSpaceOnUse">
<stop stop-color="#262626" stop-opacity="0"/>
<stop offset="0.5" stop-color="#262626"/>
<stop offset="1" stop-color="#262626" stop-opacity="0"/>
</linearGradient>
<linearGradient id="paint2_linear_215_59" x1="179" y1="130" x2="179" y2="591" gradientUnits="userSpaceOnUse">
<stop stop-color="white" stop-opacity="0"/>
<stop offset="0.5" stop-color="white"/>
<stop offset="1" stop-color="white"/>
</linearGradient>
<linearGradient id="paint3_linear_215_59" x1="179" y1="130" x2="179" y2="591" gradientUnits="userSpaceOnUse">
<stop stop-color="#262626" stop-opacity="0"/>
<stop offset="0.5" stop-color="#262626"/>
<stop offset="1" stop-color="#262626" stop-opacity="0"/>
</linearGradient>
<linearGradient id="paint4_linear_215_59" x1="307" y1="66" x2="307" y2="527" gradientUnits="userSpaceOnUse">
<stop stop-color="white" stop-opacity="0"/>
<stop offset="0.5" stop-color="white"/>
<stop offset="1" stop-color="white"/>
</linearGradient>
<linearGradient id="paint5_linear_215_59" x1="307" y1="66" x2="307" y2="527" gradientUnits="userSpaceOnUse">
<stop stop-color="#262626" stop-opacity="0"/>
<stop offset="0.5" stop-color="#262626"/>
<stop offset="1" stop-color="#262626" stop-opacity="0"/>
</linearGradient>
<linearGradient id="paint6_linear_215_59" x1="753" y1="227" x2="753" y2="688" gradientUnits="userSpaceOnUse">
<stop stop-color="white" stop-opacity="0"/>
<stop offset="0.5" stop-color="white"/>
<stop offset="1" stop-color="white"/>
</linearGradient>
<linearGradient id="paint7_linear_215_59" x1="753" y1="227" x2="753" y2="688" gradientUnits="userSpaceOnUse">
<stop stop-color="#262626" stop-opacity="0"/>
<stop offset="0.5" stop-color="#262626"/>
<stop offset="1" stop-color="#262626" stop-opacity="0"/>
</linearGradient>
<linearGradient id="paint8_linear_215_59" x1="625" y1="130" x2="625" y2="591" gradientUnits="userSpaceOnUse">
<stop stop-color="white" stop-opacity="0"/>
<stop offset="0.5" stop-color="white"/>
<stop offset="1" stop-color="white"/>
</linearGradient>
<linearGradient id="paint9_linear_215_59" x1="625" y1="130" x2="625" y2="591" gradientUnits="userSpaceOnUse">
<stop stop-color="#262626" stop-opacity="0"/>
<stop offset="0.5" stop-color="#262626"/>
<stop offset="1" stop-color="#262626" stop-opacity="0"/>
</linearGradient>
<linearGradient id="paint10_linear_215_59" x1="497" y1="66" x2="497" y2="527" gradientUnits="userSpaceOnUse">
<stop stop-color="white" stop-opacity="0"/>
<stop offset="0.5" stop-color="white"/>
<stop offset="1" stop-color="white"/>
</linearGradient>
<linearGradient id="paint11_linear_215_59" x1="497" y1="66" x2="497" y2="527" gradientUnits="userSpaceOnUse">
<stop stop-color="#262626" stop-opacity="0"/>
<stop offset="0.5" stop-color="#262626"/>
<stop offset="1" stop-color="#262626" stop-opacity="0"/>
</linearGradient>
<linearGradient id="paint12_linear_215_59" x1="401.041" y1="113.75" x2="401.041" y2="641.123" gradientUnits="userSpaceOnUse">
<stop stop-color="#85FFA7"/>
<stop offset="1" stop-color="#4DFF7E"/>
</linearGradient>
<linearGradient id="paint13_linear_215_59" x1="401.306" y1="113" x2="401.306" y2="640.373" gradientUnits="userSpaceOnUse">
<stop offset="0.454763" stop-color="#85FFA7"/>
<stop offset="1" stop-color="#4DFF7E" stop-opacity="0"/>
</linearGradient>
</defs>
</svg>
