<svg width="218" height="28" viewBox="0 0 218 28" fill="none" xmlns="http://www.w3.org/2000/svg">
<g filter="url(#filter0_i_50_871)">
<path fill-rule="evenodd" clip-rule="evenodd" d="M2.07388 27.9537H10.0617L15.6977 14.682L13.7011 10.0063H0L3.0131 17.0607H6.71749L2.07388 27.9537Z" fill="url(#paint0_linear_50_871)"/>
<mask id="mask0_50_871" style="mask-type:luminance" maskUnits="userSpaceOnUse" x="3" y="0" width="25" height="18">
<path d="M3.26514 0H28V17.1882H3.26514V0Z" fill="white"/>
</mask>
<g mask="url(#mask0_50_871)">
<path fill-rule="evenodd" clip-rule="evenodd" d="M24.573 17.0548L27.9989 9.05315L24.0939 0H7.15436L3.39746 7.05439H20.3487L21.1807 8.99846L17.733 17.0606L24.573 17.0548Z" fill="url(#paint1_linear_50_871)"/>
</g>
</g>
<path d="M52.7988 21.4768V6.77681H58.6368C59.5328 6.77681 60.3308 6.95881 61.0308 7.32281C61.7448 7.67281 62.2978 8.17681 62.6898 8.83481C63.0958 9.47881 63.2988 10.2558 63.2988 11.1658V11.4388C63.2988 12.3488 63.0888 13.1328 62.6688 13.7908C62.2628 14.4488 61.7098 14.9528 61.0098 15.3028C60.3098 15.6528 59.5188 15.8278 58.6368 15.8278H55.0668V21.4768H52.7988ZM55.0668 13.7698H58.4058C59.2038 13.7698 59.8408 13.5598 60.3168 13.1398C60.7928 12.7198 61.0308 12.1458 61.0308 11.4178V11.2078C61.0308 10.4658 60.7928 9.88481 60.3168 9.46481C59.8408 9.04481 59.2038 8.83481 58.4058 8.83481H55.0668V13.7698ZM65.0951 21.4768V11.1238H67.2161V12.3418H67.5521C67.7201 11.9078 67.9861 11.5928 68.3501 11.3968C68.7281 11.1868 69.1901 11.0818 69.7361 11.0818H70.9751V13.0348H69.6521C68.9521 13.0348 68.3781 13.2308 67.9301 13.6228C67.4821 14.0008 67.2581 14.5888 67.2581 15.3868V21.4768H65.0951ZM77.173 21.7708C76.123 21.7708 75.206 21.5538 74.422 21.1198C73.638 20.6718 73.022 20.0488 72.574 19.2508C72.14 18.4388 71.923 17.5008 71.923 16.4368V16.1848C71.923 15.1068 72.14 14.1688 72.574 13.3708C73.008 12.5588 73.61 11.9358 74.38 11.5018C75.164 11.0538 76.067 10.8298 77.089 10.8298C78.083 10.8298 78.951 11.0538 79.693 11.5018C80.449 11.9358 81.037 12.5448 81.457 13.3288C81.877 14.1128 82.087 15.0298 82.087 16.0798V16.8988H74.128C74.156 17.8088 74.457 18.5368 75.031 19.0828C75.619 19.6148 76.347 19.8808 77.215 19.8808C78.027 19.8808 78.636 19.6988 79.042 19.3348C79.462 18.9708 79.784 18.5508 80.008 18.0748L81.793 18.9988C81.597 19.3908 81.31 19.8038 80.932 20.2378C80.568 20.6718 80.085 21.0358 79.483 21.3298C78.881 21.6238 78.111 21.7708 77.173 21.7708ZM74.149 15.2398H79.882C79.826 14.4558 79.546 13.8468 79.042 13.4128C78.538 12.9648 77.88 12.7408 77.068 12.7408C76.256 12.7408 75.591 12.9648 75.073 13.4128C74.569 13.8468 74.261 14.4558 74.149 15.2398ZM89.0797 21.7708C88.0857 21.7708 87.1827 21.5608 86.3707 21.1408C85.5727 20.7208 84.9357 20.1118 84.4597 19.3138C83.9977 18.5158 83.7667 17.5568 83.7667 16.4368V16.1638C83.7667 15.0438 83.9977 14.0918 84.4597 13.3078C84.9357 12.5098 85.5727 11.9008 86.3707 11.4808C87.1827 11.0468 88.0857 10.8298 89.0797 10.8298C90.0737 10.8298 90.9207 11.0118 91.6207 11.3758C92.3207 11.7398 92.8807 12.2228 93.3007 12.8248C93.7347 13.4268 94.0147 14.0918 94.1407 14.8198L92.0407 15.2608C91.9707 14.7988 91.8237 14.3788 91.5997 14.0008C91.3757 13.6228 91.0607 13.3218 90.6547 13.0978C90.2487 12.8738 89.7377 12.7618 89.1217 12.7618C88.5197 12.7618 87.9737 12.9018 87.4837 13.1818C87.0077 13.4478 86.6297 13.8398 86.3497 14.3578C86.0697 14.8618 85.9297 15.4778 85.9297 16.2058V16.3948C85.9297 17.1228 86.0697 17.7458 86.3497 18.2638C86.6297 18.7818 87.0077 19.1738 87.4837 19.4398C87.9737 19.7058 88.5197 19.8388 89.1217 19.8388C90.0317 19.8388 90.7247 19.6078 91.2007 19.1458C91.6767 18.6698 91.9777 18.0678 92.1037 17.3398L94.2037 17.8228C94.0357 18.5368 93.7347 19.1948 93.3007 19.7968C92.8807 20.3988 92.3207 20.8818 91.6207 21.2458C90.9207 21.5958 90.0737 21.7708 89.0797 21.7708ZM96.2784 21.4768V11.1238H98.4414V21.4768H96.2784ZM97.3704 9.71681C96.9504 9.71681 96.5934 9.58381 96.2994 9.31781C96.0194 9.03781 95.8794 8.68081 95.8794 8.24681C95.8794 7.81281 96.0194 7.46281 96.2994 7.19681C96.5934 6.91681 96.9504 6.77681 97.3704 6.77681C97.8044 6.77681 98.1614 6.91681 98.4414 7.19681C98.7214 7.46281 98.8614 7.81281 98.8614 8.24681C98.8614 8.68081 98.7214 9.03781 98.4414 9.31781C98.1614 9.58381 97.8044 9.71681 97.3704 9.71681ZM105.473 21.7708C104.157 21.7708 103.065 21.4768 102.197 20.8888C101.329 20.3008 100.797 19.4118 100.601 18.2218L102.617 17.7388C102.729 18.3128 102.918 18.7678 103.184 19.1038C103.45 19.4398 103.779 19.6778 104.171 19.8178C104.577 19.9578 105.011 20.0278 105.473 20.0278C106.159 20.0278 106.684 19.8948 107.048 19.6288C107.426 19.3628 107.615 19.0198 107.615 18.5998C107.615 18.1798 107.44 17.8718 107.09 17.6758C106.74 17.4798 106.222 17.3188 105.536 17.1928L104.822 17.0668C104.122 16.9408 103.485 16.7588 102.911 16.5208C102.337 16.2828 101.882 15.9538 101.546 15.5338C101.21 15.1138 101.042 14.5748 101.042 13.9168C101.042 12.9368 101.406 12.1808 102.134 11.6488C102.862 11.1028 103.828 10.8298 105.032 10.8298C106.194 10.8298 107.146 11.0958 107.888 11.6278C108.644 12.1458 109.134 12.8528 109.358 13.7488L107.342 14.3158C107.216 13.6858 106.95 13.2448 106.544 12.9928C106.138 12.7268 105.634 12.5938 105.032 12.5938C104.444 12.5938 103.982 12.7058 103.646 12.9298C103.31 13.1398 103.142 13.4408 103.142 13.8328C103.142 14.2528 103.303 14.5608 103.625 14.7568C103.961 14.9528 104.409 15.0998 104.969 15.1978L105.704 15.3238C106.446 15.4498 107.125 15.6248 107.741 15.8488C108.357 16.0728 108.84 16.3948 109.19 16.8148C109.554 17.2348 109.736 17.7948 109.736 18.4948C109.736 19.5308 109.351 20.3358 108.581 20.9098C107.811 21.4838 106.775 21.7708 105.473 21.7708ZM111.845 21.4768V11.1238H114.008V21.4768H111.845ZM112.937 9.71681C112.517 9.71681 112.16 9.58381 111.866 9.31781C111.586 9.03781 111.446 8.68081 111.446 8.24681C111.446 7.81281 111.586 7.46281 111.866 7.19681C112.16 6.91681 112.517 6.77681 112.937 6.77681C113.371 6.77681 113.728 6.91681 114.008 7.19681C114.288 7.46281 114.428 7.81281 114.428 8.24681C114.428 8.68081 114.288 9.03781 114.008 9.31781C113.728 9.58381 113.371 9.71681 112.937 9.71681ZM121.649 21.7708C120.613 21.7708 119.689 21.5608 118.877 21.1408C118.079 20.7068 117.449 20.0908 116.987 19.2928C116.525 18.4948 116.294 17.5498 116.294 16.4578V16.1428C116.294 15.0508 116.525 14.1128 116.987 13.3288C117.449 12.5308 118.079 11.9148 118.877 11.4808C119.689 11.0468 120.613 10.8298 121.649 10.8298C122.685 10.8298 123.609 11.0468 124.421 11.4808C125.233 11.9148 125.87 12.5308 126.332 13.3288C126.794 14.1128 127.025 15.0508 127.025 16.1428V16.4578C127.025 17.5498 126.794 18.4948 126.332 19.2928C125.87 20.0908 125.233 20.7068 124.421 21.1408C123.609 21.5608 122.685 21.7708 121.649 21.7708ZM121.649 19.8388C122.601 19.8388 123.371 19.5378 123.959 18.9358C124.561 18.3198 124.862 17.4728 124.862 16.3948V16.2058C124.862 15.1278 124.568 14.2878 123.98 13.6858C123.392 13.0698 122.615 12.7618 121.649 12.7618C120.711 12.7618 119.941 13.0698 119.339 13.6858C118.751 14.2878 118.457 15.1278 118.457 16.2058V16.3948C118.457 17.4728 118.751 18.3198 119.339 18.9358C119.941 19.5378 120.711 19.8388 121.649 19.8388ZM129.298 21.4768V11.1238H131.419V12.6778H131.755C131.951 12.2578 132.301 11.8658 132.805 11.5018C133.309 11.1378 134.058 10.9558 135.052 10.9558C135.836 10.9558 136.529 11.1308 137.131 11.4808C137.747 11.8308 138.23 12.3278 138.58 12.9718C138.93 13.6018 139.105 14.3648 139.105 15.2608V21.4768H136.942V15.4288C136.942 14.5328 136.718 13.8748 136.27 13.4548C135.822 13.0208 135.206 12.8038 134.422 12.8038C133.526 12.8038 132.805 13.0978 132.259 13.6858C131.727 14.2738 131.461 15.1278 131.461 16.2478V21.4768H129.298ZM149.579 21.4768V8.83481H145.064V6.77681H156.362V8.83481H151.847V21.4768H149.579ZM156.544 21.4768V11.1238H158.665V12.3418H159.001C159.169 11.9078 159.435 11.5928 159.799 11.3968C160.177 11.1868 160.639 11.0818 161.185 11.0818H162.424V13.0348H161.101C160.401 13.0348 159.827 13.2308 159.379 13.6228C158.931 14.0008 158.707 14.5888 158.707 15.3868V21.4768H156.544ZM167.171 21.7708C166.429 21.7708 165.764 21.6448 165.176 21.3928C164.602 21.1408 164.14 20.7698 163.79 20.2798C163.454 19.7898 163.286 19.1948 163.286 18.4948C163.286 17.7808 163.454 17.1928 163.79 16.7308C164.14 16.2548 164.609 15.8978 165.197 15.6598C165.799 15.4218 166.478 15.3028 167.234 15.3028H170.384V14.6308C170.384 14.0288 170.202 13.5458 169.838 13.1818C169.474 12.8178 168.914 12.6358 168.158 12.6358C167.416 12.6358 166.849 12.8108 166.457 13.1608C166.065 13.5108 165.806 13.9658 165.68 14.5258L163.664 13.8748C163.832 13.3148 164.098 12.8108 164.462 12.3628C164.84 11.9008 165.337 11.5298 165.953 11.2498C166.569 10.9698 167.311 10.8298 168.179 10.8298C169.523 10.8298 170.58 11.1728 171.35 11.8588C172.12 12.5448 172.505 13.5178 172.505 14.7778V19.0408C172.505 19.4608 172.701 19.6708 173.093 19.6708H173.975V21.4768H172.358C171.868 21.4768 171.469 21.3508 171.161 21.0988C170.853 20.8468 170.699 20.5038 170.699 20.0698V20.0068H170.384C170.272 20.2168 170.104 20.4618 169.88 20.7418C169.656 21.0218 169.327 21.2668 168.893 21.4768C168.459 21.6728 167.885 21.7708 167.171 21.7708ZM167.486 19.9858C168.354 19.9858 169.054 19.7408 169.586 19.2508C170.118 18.7468 170.384 18.0608 170.384 17.1928V16.9828H167.36C166.786 16.9828 166.324 17.1088 165.974 17.3608C165.624 17.5988 165.449 17.9558 165.449 18.4318C165.449 18.9078 165.631 19.2858 165.995 19.5658C166.359 19.8458 166.856 19.9858 167.486 19.9858ZM179.696 21.7708C178.842 21.7708 178.051 21.5608 177.323 21.1408C176.595 20.7208 176.007 20.1188 175.559 19.3348C175.125 18.5368 174.908 17.5778 174.908 16.4578V16.1428C174.908 15.0368 175.125 14.0848 175.559 13.2868C175.993 12.4888 176.574 11.8798 177.302 11.4598C178.03 11.0398 178.828 10.8298 179.696 10.8298C180.368 10.8298 180.928 10.9138 181.376 11.0818C181.838 11.2498 182.216 11.4668 182.51 11.7328C182.804 11.9848 183.028 12.2508 183.182 12.5308H183.518V6.77681H185.681V21.4768H183.56V20.0068H183.224C182.958 20.4548 182.552 20.8608 182.006 21.2248C181.474 21.5888 180.704 21.7708 179.696 21.7708ZM180.305 19.8808C181.243 19.8808 182.013 19.5798 182.615 18.9778C183.231 18.3758 183.539 17.5148 183.539 16.3948V16.2058C183.539 15.0998 183.238 14.2458 182.636 13.6438C182.034 13.0418 181.257 12.7408 180.305 12.7408C179.381 12.7408 178.611 13.0418 177.995 13.6438C177.393 14.2458 177.092 15.0998 177.092 16.2058V16.3948C177.092 17.5148 177.393 18.3758 177.995 18.9778C178.611 19.5798 179.381 19.8808 180.305 19.8808ZM188.445 21.4768V11.1238H190.608V21.4768H188.445ZM189.537 9.71681C189.117 9.71681 188.76 9.58381 188.466 9.31781C188.186 9.03781 188.046 8.68081 188.046 8.24681C188.046 7.81281 188.186 7.46281 188.466 7.19681C188.76 6.91681 189.117 6.77681 189.537 6.77681C189.971 6.77681 190.328 6.91681 190.608 7.19681C190.888 7.46281 191.028 7.81281 191.028 8.24681C191.028 8.68081 190.888 9.03781 190.608 9.31781C190.328 9.58381 189.971 9.71681 189.537 9.71681ZM193.398 21.4768V11.1238H195.519V12.6778H195.855C196.051 12.2578 196.401 11.8658 196.905 11.5018C197.409 11.1378 198.158 10.9558 199.152 10.9558C199.936 10.9558 200.629 11.1308 201.231 11.4808C201.847 11.8308 202.33 12.3278 202.68 12.9718C203.03 13.6018 203.205 14.3648 203.205 15.2608V21.4768H201.042V15.4288C201.042 14.5328 200.818 13.8748 200.37 13.4548C199.922 13.0208 199.306 12.8038 198.522 12.8038C197.626 12.8038 196.905 13.0978 196.359 13.6858C195.827 14.2738 195.561 15.1278 195.561 16.2478V21.4768H193.398ZM205.394 16.3528V16.0378C205.394 14.9458 205.611 14.0148 206.045 13.2448C206.493 12.4748 207.081 11.8798 207.809 11.4598C208.537 11.0398 209.335 10.8298 210.203 10.8298C211.211 10.8298 211.981 11.0188 212.513 11.3968C213.059 11.7748 213.458 12.1808 213.71 12.6148H214.046V11.1238H216.146V23.5978C216.146 24.2278 215.957 24.7318 215.579 25.1098C215.215 25.4878 214.711 25.6768 214.067 25.6768H207.095V23.7868H213.395C213.801 23.7868 214.004 23.5768 214.004 23.1568V19.8598H213.668C213.514 20.1118 213.297 20.3708 213.017 20.6368C212.737 20.9028 212.366 21.1198 211.904 21.2878C211.456 21.4558 210.889 21.5398 210.203 21.5398C209.335 21.5398 208.53 21.3368 207.788 20.9308C207.06 20.5108 206.479 19.9158 206.045 19.1458C205.611 18.3618 205.394 17.4308 205.394 16.3528ZM210.791 19.6498C211.729 19.6498 212.499 19.3558 213.101 18.7678C213.717 18.1658 214.025 17.3398 214.025 16.2898V16.1008C214.025 15.0228 213.724 14.1968 213.122 13.6228C212.52 13.0348 211.743 12.7408 210.791 12.7408C209.867 12.7408 209.097 13.0348 208.481 13.6228C207.879 14.1968 207.578 15.0228 207.578 16.1008V16.2898C207.578 17.3398 207.879 18.1658 208.481 18.7678C209.097 19.3558 209.867 19.6498 210.791 19.6498Z" fill="white"/>
<defs>
<filter id="filter0_i_50_871" x="0" y="0" width="27.999" height="42.9537" filterUnits="userSpaceOnUse" color-interpolation-filters="sRGB">
<feFlood flood-opacity="0" result="BackgroundImageFix"/>
<feBlend mode="normal" in="SourceGraphic" in2="BackgroundImageFix" result="shape"/>
<feColorMatrix in="SourceAlpha" type="matrix" values="0 0 0 0 0 0 0 0 0 0 0 0 0 0 0 0 0 0 127 0" result="hardAlpha"/>
<feOffset dy="15"/>
<feGaussianBlur stdDeviation="25.05"/>
<feComposite in2="hardAlpha" operator="arithmetic" k2="-1" k3="1"/>
<feColorMatrix type="matrix" values="0 0 0 0 0.699913 0 0 0 0 1 0 0 0 0 0.783938 0 0 0 0.44 0"/>
<feBlend mode="normal" in2="shape" result="effect1_innerShadow_50_871"/>
</filter>
<linearGradient id="paint0_linear_50_871" x1="7.84886" y1="10.0063" x2="7.84886" y2="27.9537" gradientUnits="userSpaceOnUse">
<stop stop-color="#4DFF7E"/>
<stop offset="1" stop-color="#12FF55"/>
</linearGradient>
<linearGradient id="paint1_linear_50_871" x1="15.6982" y1="0" x2="15.6982" y2="17.0606" gradientUnits="userSpaceOnUse">
<stop stop-color="#4DFF7E"/>
<stop offset="1" stop-color="#12FF55"/>
</linearGradient>
</defs>
</svg>
