<svg width="141" height="28" viewBox="0 0 141 28" fill="none" xmlns="http://www.w3.org/2000/svg">
<g filter="url(#filter0_i_37_17)">
<path fill-rule="evenodd" clip-rule="evenodd" d="M2.07388 27.9537H10.0617L15.6977 14.682L13.7011 10.0063H0L3.0131 17.0607H6.71749L2.07388 27.9537Z" fill="url(#paint0_linear_37_17)"/>
<mask id="mask0_37_17" style="mask-type:luminance" maskUnits="userSpaceOnUse" x="3" y="0" width="25" height="18">
<path d="M3.26514 0H28V17.1882H3.26514V0Z" fill="white"/>
</mask>
<g mask="url(#mask0_37_17)">
<path fill-rule="evenodd" clip-rule="evenodd" d="M24.573 17.0548L27.9989 9.05315L24.0939 0H7.15436L3.39746 7.05439H20.3487L21.1807 8.99846L17.733 17.0606L24.573 17.0548Z" fill="url(#paint1_linear_37_17)"/>
</g>
</g>
<path d="M52.8551 21.4768V6.77681H58.6931C59.5891 6.77681 60.3871 6.95881 61.0871 7.32281C61.8011 7.67281 62.3541 8.17681 62.7461 8.83481C63.1521 9.47881 63.3551 10.2558 63.3551 11.1658V11.4388C63.3551 12.3488 63.1451 13.1328 62.7251 13.7908C62.3191 14.4488 61.7661 14.9528 61.0661 15.3028C60.3661 15.6528 59.5751 15.8278 58.6931 15.8278H55.1231V21.4768H52.8551ZM55.1231 13.7698H58.4621C59.2601 13.7698 59.8971 13.5598 60.3731 13.1398C60.8491 12.7198 61.0871 12.1458 61.0871 11.4178V11.2078C61.0871 10.4658 60.8491 9.88481 60.3731 9.46481C59.8971 9.04481 59.2601 8.83481 58.4621 8.83481H55.1231V13.7698ZM65.1514 21.4768V11.1238H67.2724V12.3418H67.6084C67.7764 11.9078 68.0424 11.5928 68.4064 11.3968C68.7844 11.1868 69.2464 11.0818 69.7924 11.0818H71.0314V13.0348H69.7084C69.0084 13.0348 68.4344 13.2308 67.9864 13.6228C67.5384 14.0008 67.3144 14.5888 67.3144 15.3868V21.4768H65.1514ZM77.2294 21.7708C76.1794 21.7708 75.2624 21.5538 74.4784 21.1198C73.6944 20.6718 73.0784 20.0488 72.6304 19.2508C72.1964 18.4388 71.9794 17.5008 71.9794 16.4368V16.1848C71.9794 15.1068 72.1964 14.1688 72.6304 13.3708C73.0644 12.5588 73.6664 11.9358 74.4364 11.5018C75.2204 11.0538 76.1234 10.8298 77.1454 10.8298C78.1394 10.8298 79.0074 11.0538 79.7494 11.5018C80.5054 11.9358 81.0934 12.5448 81.5134 13.3288C81.9334 14.1128 82.1434 15.0298 82.1434 16.0798V16.8988H74.1844C74.2124 17.8088 74.5134 18.5368 75.0874 19.0828C75.6754 19.6148 76.4034 19.8808 77.2714 19.8808C78.0834 19.8808 78.6924 19.6988 79.0984 19.3348C79.5184 18.9708 79.8404 18.5508 80.0644 18.0748L81.8494 18.9988C81.6534 19.3908 81.3664 19.8038 80.9884 20.2378C80.6244 20.6718 80.1414 21.0358 79.5394 21.3298C78.9374 21.6238 78.1674 21.7708 77.2294 21.7708ZM74.2054 15.2398H79.9384C79.8824 14.4558 79.6024 13.8468 79.0984 13.4128C78.5944 12.9648 77.9364 12.7408 77.1244 12.7408C76.3124 12.7408 75.6474 12.9648 75.1294 13.4128C74.6254 13.8468 74.3174 14.4558 74.2054 15.2398ZM89.136 21.7708C88.142 21.7708 87.239 21.5608 86.427 21.1408C85.629 20.7208 84.992 20.1118 84.516 19.3138C84.054 18.5158 83.823 17.5568 83.823 16.4368V16.1638C83.823 15.0438 84.054 14.0918 84.516 13.3078C84.992 12.5098 85.629 11.9008 86.427 11.4808C87.239 11.0468 88.142 10.8298 89.136 10.8298C90.13 10.8298 90.977 11.0118 91.677 11.3758C92.377 11.7398 92.937 12.2228 93.357 12.8248C93.791 13.4268 94.071 14.0918 94.197 14.8198L92.097 15.2608C92.027 14.7988 91.88 14.3788 91.656 14.0008C91.432 13.6228 91.117 13.3218 90.711 13.0978C90.305 12.8738 89.794 12.7618 89.178 12.7618C88.576 12.7618 88.03 12.9018 87.54 13.1818C87.064 13.4478 86.686 13.8398 86.406 14.3578C86.126 14.8618 85.986 15.4778 85.986 16.2058V16.3948C85.986 17.1228 86.126 17.7458 86.406 18.2638C86.686 18.7818 87.064 19.1738 87.54 19.4398C88.03 19.7058 88.576 19.8388 89.178 19.8388C90.088 19.8388 90.781 19.6078 91.257 19.1458C91.733 18.6698 92.034 18.0678 92.16 17.3398L94.26 17.8228C94.092 18.5368 93.791 19.1948 93.357 19.7968C92.937 20.3988 92.377 20.8818 91.677 21.2458C90.977 21.5958 90.13 21.7708 89.136 21.7708ZM96.3348 21.4768V11.1238H98.4978V21.4768H96.3348ZM97.4268 9.71681C97.0068 9.71681 96.6498 9.58381 96.3558 9.31781C96.0758 9.03781 95.9358 8.68081 95.9358 8.24681C95.9358 7.81281 96.0758 7.46281 96.3558 7.19681C96.6498 6.91681 97.0068 6.77681 97.4268 6.77681C97.8608 6.77681 98.2178 6.91681 98.4978 7.19681C98.7778 7.46281 98.9178 7.81281 98.9178 8.24681C98.9178 8.68081 98.7778 9.03781 98.4978 9.31781C98.2178 9.58381 97.8608 9.71681 97.4268 9.71681ZM105.53 21.7708C104.214 21.7708 103.122 21.4768 102.254 20.8888C101.386 20.3008 100.854 19.4118 100.658 18.2218L102.674 17.7388C102.786 18.3128 102.975 18.7678 103.241 19.1038C103.507 19.4398 103.836 19.6778 104.228 19.8178C104.634 19.9578 105.068 20.0278 105.53 20.0278C106.216 20.0278 106.741 19.8948 107.105 19.6288C107.483 19.3628 107.672 19.0198 107.672 18.5998C107.672 18.1798 107.497 17.8718 107.147 17.6758C106.797 17.4798 106.279 17.3188 105.593 17.1928L104.879 17.0668C104.179 16.9408 103.542 16.7588 102.968 16.5208C102.394 16.2828 101.939 15.9538 101.603 15.5338C101.267 15.1138 101.099 14.5748 101.099 13.9168C101.099 12.9368 101.463 12.1808 102.191 11.6488C102.919 11.1028 103.885 10.8298 105.089 10.8298C106.251 10.8298 107.203 11.0958 107.945 11.6278C108.701 12.1458 109.191 12.8528 109.415 13.7488L107.399 14.3158C107.273 13.6858 107.007 13.2448 106.601 12.9928C106.195 12.7268 105.691 12.5938 105.089 12.5938C104.501 12.5938 104.039 12.7058 103.703 12.9298C103.367 13.1398 103.199 13.4408 103.199 13.8328C103.199 14.2528 103.36 14.5608 103.682 14.7568C104.018 14.9528 104.466 15.0998 105.026 15.1978L105.761 15.3238C106.503 15.4498 107.182 15.6248 107.798 15.8488C108.414 16.0728 108.897 16.3948 109.247 16.8148C109.611 17.2348 109.793 17.7948 109.793 18.4948C109.793 19.5308 109.408 20.3358 108.638 20.9098C107.868 21.4838 106.832 21.7708 105.53 21.7708ZM111.901 21.4768V11.1238H114.064V21.4768H111.901ZM112.993 9.71681C112.573 9.71681 112.216 9.58381 111.922 9.31781C111.642 9.03781 111.502 8.68081 111.502 8.24681C111.502 7.81281 111.642 7.46281 111.922 7.19681C112.216 6.91681 112.573 6.77681 112.993 6.77681C113.427 6.77681 113.784 6.91681 114.064 7.19681C114.344 7.46281 114.484 7.81281 114.484 8.24681C114.484 8.68081 114.344 9.03781 114.064 9.31781C113.784 9.58381 113.427 9.71681 112.993 9.71681ZM121.705 21.7708C120.669 21.7708 119.745 21.5608 118.933 21.1408C118.135 20.7068 117.505 20.0908 117.043 19.2928C116.581 18.4948 116.35 17.5498 116.35 16.4578V16.1428C116.35 15.0508 116.581 14.1128 117.043 13.3288C117.505 12.5308 118.135 11.9148 118.933 11.4808C119.745 11.0468 120.669 10.8298 121.705 10.8298C122.741 10.8298 123.665 11.0468 124.477 11.4808C125.289 11.9148 125.926 12.5308 126.388 13.3288C126.85 14.1128 127.081 15.0508 127.081 16.1428V16.4578C127.081 17.5498 126.85 18.4948 126.388 19.2928C125.926 20.0908 125.289 20.7068 124.477 21.1408C123.665 21.5608 122.741 21.7708 121.705 21.7708ZM121.705 19.8388C122.657 19.8388 123.427 19.5378 124.015 18.9358C124.617 18.3198 124.918 17.4728 124.918 16.3948V16.2058C124.918 15.1278 124.624 14.2878 124.036 13.6858C123.448 13.0698 122.671 12.7618 121.705 12.7618C120.767 12.7618 119.997 13.0698 119.395 13.6858C118.807 14.2878 118.513 15.1278 118.513 16.2058V16.3948C118.513 17.4728 118.807 18.3198 119.395 18.9358C119.997 19.5378 120.767 19.8388 121.705 19.8388ZM129.354 21.4768V11.1238H131.475V12.6778H131.811C132.007 12.2578 132.357 11.8658 132.861 11.5018C133.365 11.1378 134.114 10.9558 135.108 10.9558C135.892 10.9558 136.585 11.1308 137.187 11.4808C137.803 11.8308 138.286 12.3278 138.636 12.9718C138.986 13.6018 139.161 14.3648 139.161 15.2608V21.4768H136.998V15.4288C136.998 14.5328 136.774 13.8748 136.326 13.4548C135.878 13.0208 135.262 12.8038 134.478 12.8038C133.582 12.8038 132.861 13.0978 132.315 13.6858C131.783 14.2738 131.517 15.1278 131.517 16.2478V21.4768H129.354Z" fill="white"/>
<defs>
<filter id="filter0_i_37_17" x="0" y="0" width="27.999" height="42.9536" filterUnits="userSpaceOnUse" color-interpolation-filters="sRGB">
<feFlood flood-opacity="0" result="BackgroundImageFix"/>
<feBlend mode="normal" in="SourceGraphic" in2="BackgroundImageFix" result="shape"/>
<feColorMatrix in="SourceAlpha" type="matrix" values="0 0 0 0 0 0 0 0 0 0 0 0 0 0 0 0 0 0 127 0" result="hardAlpha"/>
<feOffset dy="15"/>
<feGaussianBlur stdDeviation="25.05"/>
<feComposite in2="hardAlpha" operator="arithmetic" k2="-1" k3="1"/>
<feColorMatrix type="matrix" values="0 0 0 0 0.699913 0 0 0 0 1 0 0 0 0 0.783938 0 0 0 0.44 0"/>
<feBlend mode="normal" in2="shape" result="effect1_innerShadow_37_17"/>
</filter>
<linearGradient id="paint0_linear_37_17" x1="7.84886" y1="10.0063" x2="7.84886" y2="27.9537" gradientUnits="userSpaceOnUse">
<stop stop-color="#4DFF7E"/>
<stop offset="1" stop-color="#12FF55"/>
</linearGradient>
<linearGradient id="paint1_linear_37_17" x1="15.6982" y1="0" x2="15.6982" y2="17.0606" gradientUnits="userSpaceOnUse">
<stop stop-color="#4DFF7E"/>
<stop offset="1" stop-color="#12FF55"/>
</linearGradient>
</defs>
</svg>
