<svg width="17" height="24" viewBox="0 0 17 24" fill="none" xmlns="http://www.w3.org/2000/svg">
<path d="M6.14763 16.4547V15.1277C6.14763 14.1168 6.34079 13.2953 6.72711 12.6635C7.13489 12.0316 7.82167 11.4945 8.78747 11.0522L9.49572 10.7363C10.5259 10.294 11.3307 9.78846 11.9102 9.21978C12.4897 8.6511 12.7794 7.86126 12.7794 6.85028C12.7794 6.1131 12.5863 5.49176 12.1999 4.98626C11.8136 4.48077 11.2878 4.09112 10.6225 3.81731C9.95715 3.5435 9.19525 3.40659 8.33676 3.40659C7.47828 3.40659 6.68418 3.55403 5.95447 3.8489C5.24622 4.12271 4.67747 4.55449 4.24823 5.14423C3.81899 5.73397 3.60437 6.47115 3.60437 7.35577V8.24039H0.191895V7.35577C0.191895 5.92354 0.546019 4.69139 1.25427 3.65934C1.98398 2.62729 2.96051 1.84799 4.18385 1.32143C5.40719 0.77381 6.79149 0.5 8.33676 0.5C9.86057 0.5 11.2127 0.77381 12.3931 1.32143C13.5735 1.86905 14.4964 2.61676 15.1617 3.56456C15.8485 4.51236 16.1919 5.6076 16.1919 6.85028C16.1919 8.07189 15.9558 9.09341 15.4836 9.91484C15.0329 10.7152 14.4427 11.3681 13.713 11.8736C12.9833 12.3791 12.2107 12.8109 11.3951 13.169L10.6869 13.4849C10.3005 13.6534 10.0215 13.864 9.84984 14.1168C9.69961 14.3695 9.62449 14.7486 9.62449 15.2541V16.4547H6.14763ZM7.95045 23.5C7.22073 23.5 6.59833 23.2578 6.08324 22.7734C5.58961 22.2889 5.3428 21.6676 5.3428 20.9093C5.3428 20.1511 5.58961 19.5403 6.08324 19.0769C6.59833 18.5925 7.22073 18.3503 7.95045 18.3503C8.72308 18.3503 9.35621 18.5925 9.84984 19.0769C10.3435 19.5403 10.5903 20.1511 10.5903 20.9093C10.5903 21.6676 10.3435 22.2889 9.84984 22.7734C9.35621 23.2578 8.72308 23.5 7.95045 23.5Z" fill="url(#paint0_linear_77_98)"/>
<defs>
<linearGradient id="paint0_linear_77_98" x1="8.19189" y1="0.5" x2="8.19189" y2="23.5" gradientUnits="userSpaceOnUse">
<stop stop-color="#4DFF7E"/>
<stop offset="1" stop-color="#12FF55"/>
</linearGradient>
</defs>
</svg>
