<svg width="719" height="360" viewBox="0 0 719 360" fill="none" xmlns="http://www.w3.org/2000/svg">
<g clip-path="url(#clip0_160_172)">
<path d="M359 36L359 359.85" stroke="#1C1C1C" stroke-dasharray="7 7"/>
<path d="M131 132L360 361" stroke="#1C1C1C" stroke-dasharray="7 7"/>
<path d="M589 132L360 361" stroke="#1C1C1C" stroke-dasharray="7 7"/>
<g filter="url(#filter0_b_160_172)">
<circle cx="284.5" cy="285.5" r="3.5" fill="white" fill-opacity="0.1"/>
<circle cx="284.5" cy="285.5" r="3.75" stroke="#383838" stroke-width="0.5"/>
</g>
<g filter="url(#filter1_b_160_172)">
<circle cx="234.5" cy="235.5" r="3.5" fill="white" fill-opacity="0.1"/>
<circle cx="234.5" cy="235.5" r="3.75" stroke="#383838" stroke-width="0.5"/>
</g>
<g filter="url(#filter2_b_160_172)">
<circle cx="191.5" cy="192.5" r="3.5" fill="white" fill-opacity="0.1"/>
<circle cx="191.5" cy="192.5" r="3.75" stroke="#383838" stroke-width="0.5"/>
</g>
<g filter="url(#filter3_b_160_172)">
<circle cx="153.5" cy="154.5" r="3.5" fill="white" fill-opacity="0.1"/>
<circle cx="153.5" cy="154.5" r="3.75" stroke="#383838" stroke-width="0.5"/>
</g>
<g filter="url(#filter4_b_160_172)">
<circle cx="121.5" cy="121.5" r="3.5" fill="white" fill-opacity="0.1"/>
<circle cx="121.5" cy="121.5" r="3.75" stroke="#383838" stroke-width="0.5"/>
</g>
<g filter="url(#filter5_b_160_172)">
<circle cx="3.5" cy="3.5" r="3.5" transform="matrix(-1 0 0 1 438 282)" fill="white" fill-opacity="0.1"/>
<circle cx="3.5" cy="3.5" r="3.75" transform="matrix(-1 0 0 1 438 282)" stroke="#383838" stroke-width="0.5"/>
</g>
<g filter="url(#filter6_b_160_172)">
<circle cx="3.5" cy="3.5" r="3.5" transform="matrix(-1 0 0 1 488 232)" fill="white" fill-opacity="0.1"/>
<circle cx="3.5" cy="3.5" r="3.75" transform="matrix(-1 0 0 1 488 232)" stroke="#383838" stroke-width="0.5"/>
</g>
<g filter="url(#filter7_b_160_172)">
<circle cx="3.5" cy="3.5" r="3.5" transform="matrix(-1 0 0 1 531 189)" fill="white" fill-opacity="0.1"/>
<circle cx="3.5" cy="3.5" r="3.75" transform="matrix(-1 0 0 1 531 189)" stroke="#383838" stroke-width="0.5"/>
</g>
<g filter="url(#filter8_b_160_172)">
<circle cx="3.5" cy="3.5" r="3.5" transform="matrix(-1 0 0 1 569 151)" fill="white" fill-opacity="0.1"/>
<circle cx="3.5" cy="3.5" r="3.75" transform="matrix(-1 0 0 1 569 151)" stroke="#383838" stroke-width="0.5"/>
</g>
<g filter="url(#filter9_b_160_172)">
<circle cx="3.5" cy="3.5" r="3.5" transform="matrix(-1 0 0 1 601 118)" fill="white" fill-opacity="0.1"/>
<circle cx="3.5" cy="3.5" r="3.75" transform="matrix(-1 0 0 1 601 118)" stroke="#383838" stroke-width="0.5"/>
</g>
<g filter="url(#filter10_b_160_172)">
<circle cx="3.5" cy="3.5" r="3.5" transform="matrix(-1 0 0 1 362 250)" fill="white" fill-opacity="0.1"/>
<circle cx="3.5" cy="3.5" r="3.75" transform="matrix(-1 0 0 1 362 250)" stroke="#383838" stroke-width="0.5"/>
</g>
<g filter="url(#filter11_b_160_172)">
<circle cx="3.5" cy="3.5" r="3.5" transform="matrix(-1 0 0 1 362 180)" fill="white" fill-opacity="0.1"/>
<circle cx="3.5" cy="3.5" r="3.75" transform="matrix(-1 0 0 1 362 180)" stroke="#383838" stroke-width="0.5"/>
</g>
<g filter="url(#filter12_b_160_172)">
<circle cx="3.5" cy="3.5" r="3.5" transform="matrix(-1 0 0 1 362 118)" fill="white" fill-opacity="0.1"/>
<circle cx="3.5" cy="3.5" r="3.75" transform="matrix(-1 0 0 1 362 118)" stroke="#383838" stroke-width="0.5"/>
</g>
<g filter="url(#filter13_b_160_172)">
<circle cx="3.5" cy="3.5" r="3.5" transform="matrix(-1 0 0 1 362 64)" fill="white" fill-opacity="0.1"/>
<circle cx="3.5" cy="3.5" r="3.75" transform="matrix(-1 0 0 1 362 64)" stroke="#383838" stroke-width="0.5"/>
</g>
<g opacity="0.3" filter="url(#filter14_b_160_172)">
<circle cx="360" cy="360" r="336" fill="#101010" fill-opacity="0.2"/>
<circle cx="360" cy="360" r="336.5" stroke="#1C1C1C"/>
<circle cx="360" cy="360" r="336.5" stroke="url(#paint0_linear_160_172)" stroke-opacity="0.05"/>
</g>
<g opacity="0.3" filter="url(#filter15_b_160_172)">
<circle cx="359.5" cy="359.5" r="360" stroke="#404040" stroke-dasharray="15 15"/>
</g>
<g opacity="0.25" filter="url(#filter16_bd_160_172)">
<circle cx="361" cy="360" r="292" fill="#101010" fill-opacity="0.24" shape-rendering="crispEdges"/>
<circle cx="361" cy="360" r="292.5" stroke="#1C1C1C" shape-rendering="crispEdges"/>
<circle cx="361" cy="360" r="292.5" stroke="url(#paint1_linear_160_172)" stroke-opacity="0.05" shape-rendering="crispEdges"/>
</g>
<g filter="url(#filter17_b_160_172)">
<circle cx="359.5" cy="359.5" r="236.5" fill="#101010" fill-opacity="0.2"/>
<circle cx="359.5" cy="359.5" r="237" stroke="#1C1C1C"/>
<circle cx="359.5" cy="359.5" r="237" stroke="url(#paint2_linear_160_172)" stroke-opacity="0.05"/>
</g>
<g filter="url(#filter18_b_160_172)">
<circle cx="360" cy="360" r="176" fill="#101010" fill-opacity="0.2"/>
<circle cx="360" cy="360" r="176.5" stroke="#1C1C1C"/>
<circle cx="360" cy="360" r="176.5" stroke="url(#paint3_linear_160_172)" stroke-opacity="0.05"/>
</g>
<g filter="url(#filter19_b_160_172)">
<circle cx="360" cy="360" r="106" fill="#101010" fill-opacity="0.2"/>
<circle cx="360" cy="360" r="106.5" stroke="#1C1C1C"/>
<circle cx="360" cy="360" r="106.5" stroke="url(#paint4_linear_160_172)" stroke-opacity="0.05"/>
</g>
<g filter="url(#filter20_b_160_172)">
<g clip-path="url(#clip1_160_172)">
<path d="M36 201C36 191.611 43.6112 184 53 184H79C88.3888 184 96 191.611 96 201V201C96 210.389 88.3888 218 79 218H53C43.6112 218 36 210.389 36 201V201Z" fill="white" fill-opacity="0.1"/>
<path d="M36 201C36 191.611 43.6112 184 53 184H79C88.3888 184 96 191.611 96 201V201C96 210.389 88.3888 218 79 218H53C43.6112 218 36 210.389 36 201V201Z" fill="black" fill-opacity="0.2"/>
<path d="M36 201C36 191.611 43.6112 184 53 184H79C88.3888 184 96 191.611 96 201V201C96 210.389 88.3888 218 79 218H53C43.6112 218 36 210.389 36 201V201Z" fill="black" fill-opacity="0.2"/>
<path d="M36 201C36 191.611 43.6112 184 53 184H79C88.3888 184 96 191.611 96 201V201C96 210.389 88.3888 218 79 218H53C43.6112 218 36 210.389 36 201V201Z" fill="black" fill-opacity="0.2"/>
<path d="M49.876 196.96C50.588 196.96 51.204 197.096 51.724 197.368C52.244 197.632 52.684 198.024 53.044 198.544L52.18 199.372C51.876 198.908 51.532 198.576 51.148 198.376C50.772 198.168 50.324 198.064 49.804 198.064C49.42 198.064 49.104 198.116 48.856 198.22C48.608 198.324 48.424 198.464 48.304 198.64C48.192 198.808 48.136 199 48.136 199.216C48.136 199.464 48.22 199.68 48.388 199.864C48.564 200.048 48.888 200.192 49.36 200.296L50.968 200.656C51.736 200.824 52.28 201.08 52.6 201.424C52.92 201.768 53.08 202.204 53.08 202.732C53.08 203.22 52.948 203.644 52.684 204.004C52.42 204.364 52.052 204.64 51.58 204.832C51.116 205.024 50.568 205.12 49.936 205.12C49.376 205.12 48.872 205.048 48.424 204.904C47.976 204.76 47.584 204.564 47.248 204.316C46.912 204.068 46.636 203.784 46.42 203.464L47.308 202.576C47.476 202.856 47.688 203.108 47.944 203.332C48.2 203.548 48.496 203.716 48.832 203.836C49.176 203.956 49.556 204.016 49.972 204.016C50.34 204.016 50.656 203.972 50.92 203.884C51.192 203.796 51.396 203.668 51.532 203.5C51.676 203.324 51.748 203.116 51.748 202.876C51.748 202.644 51.668 202.44 51.508 202.264C51.356 202.088 51.068 201.952 50.644 201.856L48.904 201.46C48.424 201.356 48.028 201.208 47.716 201.016C47.404 200.824 47.172 200.592 47.02 200.32C46.868 200.04 46.792 199.728 46.792 199.384C46.792 198.936 46.912 198.532 47.152 198.172C47.4 197.804 47.756 197.512 48.22 197.296C48.684 197.072 49.236 196.96 49.876 196.96ZM56.4472 197.236V203.2C56.4472 203.496 56.5232 203.712 56.6752 203.848C56.8352 203.984 57.0472 204.052 57.3112 204.052C57.5272 204.052 57.7152 204.02 57.8752 203.956C58.0352 203.884 58.1832 203.788 58.3192 203.668L58.6072 204.604C58.4232 204.764 58.1952 204.892 57.9232 204.988C57.6592 205.076 57.3632 205.12 57.0352 205.12C56.6912 205.12 56.3752 205.064 56.0872 204.952C55.7992 204.84 55.5752 204.66 55.4152 204.412C55.2552 204.156 55.1712 203.824 55.1632 203.416V197.596L56.4472 197.236ZM58.5112 199V200.008H54.0112V199H58.5112ZM62.3852 198.88C62.9692 198.88 63.4852 199.004 63.9332 199.252C64.3812 199.5 64.7292 199.86 64.9772 200.332C65.2332 200.796 65.3612 201.352 65.3612 202C65.3612 202.648 65.2332 203.208 64.9772 203.68C64.7292 204.144 64.3812 204.5 63.9332 204.748C63.4852 204.996 62.9692 205.12 62.3852 205.12C61.8012 205.12 61.2852 204.996 60.8372 204.748C60.3892 204.5 60.0372 204.144 59.7812 203.68C59.5252 203.208 59.3972 202.648 59.3972 202C59.3972 201.352 59.5252 200.796 59.7812 200.332C60.0372 199.86 60.3892 199.5 60.8372 199.252C61.2852 199.004 61.8012 198.88 62.3852 198.88ZM62.3852 199.888C62.0252 199.888 61.7172 199.972 61.4612 200.14C61.2132 200.3 61.0212 200.536 60.8852 200.848C60.7492 201.16 60.6812 201.544 60.6812 202C60.6812 202.448 60.7492 202.832 60.8852 203.152C61.0212 203.464 61.2132 203.704 61.4612 203.872C61.7172 204.032 62.0252 204.112 62.3852 204.112C62.7452 204.112 63.0492 204.032 63.2972 203.872C63.5452 203.704 63.7372 203.464 63.8732 203.152C64.0092 202.832 64.0772 202.448 64.0772 202C64.0772 201.544 64.0092 201.16 63.8732 200.848C63.7372 200.536 63.5452 200.3 63.2972 200.14C63.0492 199.972 62.7452 199.888 62.3852 199.888ZM69.5685 198.88C70.0485 198.88 70.4565 198.952 70.7925 199.096C71.1365 199.232 71.4245 199.428 71.6565 199.684C71.8885 199.94 72.0645 200.232 72.1845 200.56L70.9725 201.04C70.8685 200.672 70.7005 200.392 70.4685 200.2C70.2445 200 69.9485 199.9 69.5805 199.9C69.2205 199.9 68.9125 199.984 68.6565 200.152C68.4005 200.312 68.2045 200.548 68.0685 200.86C67.9405 201.172 67.8765 201.556 67.8765 202.012C67.8765 202.46 67.9445 202.84 68.0805 203.152C68.2165 203.464 68.4125 203.7 68.6685 203.86C68.9245 204.02 69.2285 204.1 69.5805 204.1C69.8525 204.1 70.0885 204.056 70.2885 203.968C70.4885 203.872 70.6525 203.74 70.7805 203.572C70.9165 203.396 71.0085 203.184 71.0565 202.936L72.2205 203.332C72.1085 203.692 71.9325 204.008 71.6925 204.28C71.4605 204.544 71.1685 204.752 70.8165 204.904C70.4645 205.048 70.0605 205.12 69.6045 205.12C69.0125 205.12 68.4885 204.996 68.0325 204.748C67.5765 204.5 67.2205 204.144 66.9645 203.68C66.7165 203.208 66.5925 202.648 66.5925 202C66.5925 201.352 66.7165 200.796 66.9645 200.332C67.2205 199.86 67.5725 199.5 68.0205 199.252C68.4765 199.004 68.9925 198.88 69.5685 198.88ZM79.3788 199L76.7028 201.736L76.4268 201.928L74.5428 203.884L74.5308 202.42L77.8548 199H79.3788ZM74.9988 196.3V205H73.7148V196.3H74.9988ZM76.8588 201.016L79.5228 205H78.0348L75.8988 201.748L76.8588 201.016ZM82.8854 205.12C82.2854 205.12 81.7374 205.004 81.2414 204.772C80.7454 204.54 80.3534 204.212 80.0654 203.788L80.9534 203.02C81.1294 203.348 81.3814 203.612 81.7094 203.812C82.0454 204.004 82.4454 204.1 82.9094 204.1C83.2774 204.1 83.5694 204.036 83.7854 203.908C84.0014 203.78 84.1094 203.6 84.1094 203.368C84.1094 203.216 84.0574 203.084 83.9534 202.972C83.8574 202.852 83.6694 202.76 83.3894 202.696L82.1294 202.432C81.4894 202.304 81.0334 202.1 80.7614 201.82C80.4894 201.532 80.3534 201.168 80.3534 200.728C80.3534 200.4 80.4494 200.096 80.6414 199.816C80.8334 199.536 81.1134 199.312 81.4814 199.144C81.8574 198.968 82.3054 198.88 82.8254 198.88C83.4254 198.88 83.9374 198.988 84.3614 199.204C84.7854 199.412 85.1094 199.712 85.3334 200.104L84.4454 200.848C84.2934 200.528 84.0694 200.292 83.7734 200.14C83.4774 199.98 83.1694 199.9 82.8494 199.9C82.5934 199.9 82.3734 199.932 82.1894 199.996C82.0054 200.06 81.8654 200.148 81.7694 200.26C81.6734 200.372 81.6254 200.504 81.6254 200.656C81.6254 200.816 81.6854 200.956 81.8054 201.076C81.9254 201.196 82.1414 201.288 82.4534 201.352L83.8214 201.64C84.3974 201.752 84.8014 201.944 85.0334 202.216C85.2734 202.48 85.3934 202.804 85.3934 203.188C85.3934 203.572 85.2934 203.912 85.0934 204.208C84.8934 204.496 84.6054 204.72 84.2294 204.88C83.8534 205.04 83.4054 205.12 82.8854 205.12Z" fill="white"/>
<g opacity="0.03" filter="url(#filter21_f_160_172)">
<ellipse cx="21.5" cy="22.5" rx="21.5" ry="22.5" transform="matrix(-1 0 0 1 129 195)" fill="#4DFF7E"/>
</g>
</g>
<path d="M79 183.5H53C43.335 183.5 35.5 191.335 35.5 201C35.5 210.665 43.335 218.5 53 218.5H79C88.665 218.5 96.5 210.665 96.5 201C96.5 191.335 88.665 183.5 79 183.5Z" stroke="#1A1A1A"/>
<path d="M79 183.5H53C43.335 183.5 35.5 191.335 35.5 201C35.5 210.665 43.335 218.5 53 218.5H79C88.665 218.5 96.5 210.665 96.5 201C96.5 191.335 88.665 183.5 79 183.5Z" stroke="url(#paint5_linear_160_172)" stroke-opacity="0.09"/>
</g>
<g filter="url(#filter22_b_160_172)">
<g clip-path="url(#clip2_160_172)">
<path d="M310 24C310 14.6112 317.611 7 327 7H391C400.389 7 408 14.6112 408 24V24C408 33.3888 400.389 41 391 41H327C317.611 41 310 33.3888 310 24V24Z" fill="white" fill-opacity="0.1"/>
<path d="M310 24C310 14.6112 317.611 7 327 7H391C400.389 7 408 14.6112 408 24V24C408 33.3888 400.389 41 391 41H327C317.611 41 310 33.3888 310 24V24Z" fill="black" fill-opacity="0.2"/>
<path d="M310 24C310 14.6112 317.611 7 327 7H391C400.389 7 408 14.6112 408 24V24C408 33.3888 400.389 41 391 41H327C317.611 41 310 33.3888 310 24V24Z" fill="black" fill-opacity="0.2"/>
<path d="M310 24C310 14.6112 317.611 7 327 7H391C400.389 7 408 14.6112 408 24V24C408 33.3888 400.389 41 391 41H327C317.611 41 310 33.3888 310 24V24Z" fill="black" fill-opacity="0.2"/>
<path d="M327.74 25.9C327.58 26.38 327.34 26.788 327.02 27.124C326.7 27.452 326.324 27.7 325.892 27.868C325.46 28.036 324.984 28.12 324.464 28.12C323.704 28.12 323.044 27.956 322.484 27.628C321.924 27.3 321.492 26.832 321.188 26.224C320.884 25.616 320.732 24.888 320.732 24.04C320.732 23.192 320.884 22.464 321.188 21.856C321.492 21.248 321.924 20.78 322.484 20.452C323.044 20.124 323.7 19.96 324.452 19.96C324.972 19.96 325.44 20.032 325.856 20.176C326.28 20.32 326.64 20.536 326.936 20.824C327.232 21.112 327.46 21.472 327.62 21.904L326.408 22.444C326.248 21.972 326.016 21.628 325.712 21.412C325.408 21.188 325.012 21.076 324.524 21.076C324.036 21.076 323.608 21.192 323.24 21.424C322.872 21.656 322.584 21.992 322.376 22.432C322.176 22.872 322.076 23.408 322.076 24.04C322.076 24.664 322.172 25.2 322.364 25.648C322.556 26.088 322.832 26.424 323.192 26.656C323.552 26.888 323.984 27.004 324.488 27.004C324.976 27.004 325.396 26.88 325.748 26.632C326.108 26.376 326.364 25.996 326.516 25.492L327.74 25.9ZM331.803 21.88C332.387 21.88 332.903 22.004 333.351 22.252C333.799 22.5 334.147 22.86 334.395 23.332C334.651 23.796 334.779 24.352 334.779 25C334.779 25.648 334.651 26.208 334.395 26.68C334.147 27.144 333.799 27.5 333.351 27.748C332.903 27.996 332.387 28.12 331.803 28.12C331.219 28.12 330.703 27.996 330.255 27.748C329.807 27.5 329.455 27.144 329.199 26.68C328.943 26.208 328.815 25.648 328.815 25C328.815 24.352 328.943 23.796 329.199 23.332C329.455 22.86 329.807 22.5 330.255 22.252C330.703 22.004 331.219 21.88 331.803 21.88ZM331.803 22.888C331.443 22.888 331.135 22.972 330.879 23.14C330.631 23.3 330.439 23.536 330.303 23.848C330.167 24.16 330.099 24.544 330.099 25C330.099 25.448 330.167 25.832 330.303 26.152C330.439 26.464 330.631 26.704 330.879 26.872C331.135 27.032 331.443 27.112 331.803 27.112C332.163 27.112 332.467 27.032 332.715 26.872C332.963 26.704 333.155 26.464 333.291 26.152C333.427 25.832 333.495 25.448 333.495 25C333.495 24.544 333.427 24.16 333.291 23.848C333.155 23.536 332.963 23.3 332.715 23.14C332.467 22.972 332.163 22.888 331.803 22.888ZM336.394 28V22H337.534L337.594 23.008C337.802 22.624 338.078 22.34 338.422 22.156C338.774 21.972 339.146 21.88 339.538 21.88C339.97 21.88 340.366 21.98 340.726 22.18C341.094 22.372 341.37 22.664 341.554 23.056C341.682 22.792 341.858 22.572 342.082 22.396C342.306 22.22 342.554 22.092 342.826 22.012C343.098 21.924 343.366 21.88 343.63 21.88C344.014 21.88 344.374 21.96 344.71 22.12C345.046 22.28 345.318 22.524 345.526 22.852C345.734 23.18 345.838 23.6 345.838 24.112V28H344.554V24.316C344.554 23.828 344.438 23.476 344.206 23.26C343.974 23.044 343.678 22.936 343.318 22.936C343.038 22.936 342.778 23.004 342.538 23.14C342.306 23.276 342.118 23.48 341.974 23.752C341.83 24.016 341.758 24.344 341.758 24.736V28H340.474V24.316C340.474 23.828 340.358 23.476 340.126 23.26C339.894 23.044 339.598 22.936 339.238 22.936C338.998 22.936 338.758 23 338.518 23.128C338.278 23.256 338.078 23.456 337.918 23.728C337.758 24 337.678 24.36 337.678 24.808V28H336.394ZM347.785 28V22H348.925L348.985 23.008C349.193 22.624 349.469 22.34 349.813 22.156C350.165 21.972 350.537 21.88 350.929 21.88C351.361 21.88 351.757 21.98 352.117 22.18C352.485 22.372 352.761 22.664 352.945 23.056C353.073 22.792 353.249 22.572 353.473 22.396C353.697 22.22 353.945 22.092 354.217 22.012C354.489 21.924 354.757 21.88 355.021 21.88C355.405 21.88 355.765 21.96 356.101 22.12C356.437 22.28 356.709 22.524 356.917 22.852C357.125 23.18 357.229 23.6 357.229 24.112V28H355.945V24.316C355.945 23.828 355.829 23.476 355.597 23.26C355.365 23.044 355.069 22.936 354.709 22.936C354.429 22.936 354.169 23.004 353.929 23.14C353.697 23.276 353.509 23.48 353.365 23.752C353.221 24.016 353.149 24.344 353.149 24.736V28H351.865V24.316C351.865 23.828 351.749 23.476 351.517 23.26C351.285 23.044 350.989 22.936 350.629 22.936C350.389 22.936 350.149 23 349.909 23.128C349.669 23.256 349.469 23.456 349.309 23.728C349.149 24 349.069 24.36 349.069 24.808V28H347.785ZM361.78 21.88C362.364 21.88 362.88 22.004 363.328 22.252C363.776 22.5 364.124 22.86 364.372 23.332C364.628 23.796 364.756 24.352 364.756 25C364.756 25.648 364.628 26.208 364.372 26.68C364.124 27.144 363.776 27.5 363.328 27.748C362.88 27.996 362.364 28.12 361.78 28.12C361.196 28.12 360.68 27.996 360.232 27.748C359.784 27.5 359.432 27.144 359.176 26.68C358.92 26.208 358.792 25.648 358.792 25C358.792 24.352 358.92 23.796 359.176 23.332C359.432 22.86 359.784 22.5 360.232 22.252C360.68 22.004 361.196 21.88 361.78 21.88ZM361.78 22.888C361.42 22.888 361.112 22.972 360.856 23.14C360.608 23.3 360.416 23.536 360.28 23.848C360.144 24.16 360.076 24.544 360.076 25C360.076 25.448 360.144 25.832 360.28 26.152C360.416 26.464 360.608 26.704 360.856 26.872C361.112 27.032 361.42 27.112 361.78 27.112C362.14 27.112 362.444 27.032 362.692 26.872C362.94 26.704 363.132 26.464 363.268 26.152C363.404 25.832 363.472 25.448 363.472 25C363.472 24.544 363.404 24.16 363.268 23.848C363.132 23.536 362.94 23.3 362.692 23.14C362.444 22.972 362.14 22.888 361.78 22.888ZM368.675 28.12C368.179 28.12 367.727 27.996 367.319 27.748C366.919 27.5 366.603 27.144 366.371 26.68C366.139 26.216 366.023 25.66 366.023 25.012C366.023 24.34 366.147 23.772 366.395 23.308C366.643 22.844 366.975 22.492 367.391 22.252C367.807 22.004 368.263 21.88 368.759 21.88C369.271 21.88 369.703 22.02 370.055 22.3C370.407 22.58 370.643 22.944 370.763 23.392L370.619 23.524V19.3H371.903V28H370.763L370.667 26.368L370.835 26.38C370.779 26.74 370.647 27.052 370.439 27.316C370.231 27.572 369.971 27.772 369.659 27.916C369.355 28.052 369.027 28.12 368.675 28.12ZM368.951 27.088C369.295 27.088 369.591 27 369.839 26.824C370.087 26.648 370.279 26.4 370.415 26.08C370.551 25.76 370.619 25.376 370.619 24.928C370.619 24.512 370.551 24.156 370.415 23.86C370.279 23.556 370.087 23.324 369.839 23.164C369.599 23.004 369.319 22.924 368.999 22.924C368.463 22.924 368.047 23.108 367.751 23.476C367.455 23.844 367.307 24.352 367.307 25C367.307 25.648 367.451 26.16 367.739 26.536C368.027 26.904 368.431 27.088 368.951 27.088ZM374.542 20.992C374.262 20.992 374.046 20.924 373.894 20.788C373.75 20.644 373.678 20.444 373.678 20.188C373.678 19.932 373.75 19.736 373.894 19.6C374.046 19.464 374.262 19.396 374.542 19.396C374.814 19.396 375.022 19.464 375.166 19.6C375.318 19.736 375.394 19.932 375.394 20.188C375.394 20.444 375.318 20.644 375.166 20.788C375.022 20.924 374.814 20.992 374.542 20.992ZM375.178 22V28H373.894V22H375.178ZM378.939 20.236V26.2C378.939 26.496 379.015 26.712 379.167 26.848C379.327 26.984 379.539 27.052 379.803 27.052C380.019 27.052 380.207 27.02 380.367 26.956C380.527 26.884 380.675 26.788 380.811 26.668L381.099 27.604C380.915 27.764 380.687 27.892 380.415 27.988C380.151 28.076 379.855 28.12 379.527 28.12C379.183 28.12 378.867 28.064 378.579 27.952C378.291 27.84 378.067 27.66 377.907 27.412C377.747 27.156 377.663 26.824 377.655 26.416V20.596L378.939 20.236ZM381.003 22V23.008H376.503V22H381.003ZM382.921 20.992C382.641 20.992 382.425 20.924 382.273 20.788C382.129 20.644 382.057 20.444 382.057 20.188C382.057 19.932 382.129 19.736 382.273 19.6C382.425 19.464 382.641 19.396 382.921 19.396C383.193 19.396 383.401 19.464 383.545 19.6C383.697 19.736 383.773 19.932 383.773 20.188C383.773 20.444 383.697 20.644 383.545 20.788C383.401 20.924 383.193 20.992 382.921 20.992ZM383.557 22V28H382.273V22H383.557ZM388.206 28.12C387.606 28.12 387.078 27.996 386.622 27.748C386.166 27.5 385.81 27.144 385.554 26.68C385.306 26.208 385.182 25.648 385.182 25C385.182 24.352 385.306 23.796 385.554 23.332C385.81 22.86 386.162 22.5 386.61 22.252C387.058 22.004 387.566 21.88 388.134 21.88C388.718 21.88 389.214 22 389.622 22.24C390.03 22.48 390.342 22.808 390.558 23.224C390.774 23.64 390.882 24.112 390.882 24.64C390.882 24.784 390.878 24.92 390.87 25.048C390.862 25.176 390.85 25.288 390.834 25.384H386.01V24.4H390.27L389.634 24.592C389.634 24.048 389.498 23.632 389.226 23.344C388.954 23.048 388.582 22.9 388.11 22.9C387.766 22.9 387.466 22.98 387.21 23.14C386.954 23.3 386.758 23.54 386.622 23.86C386.486 24.172 386.418 24.556 386.418 25.012C386.418 25.46 386.49 25.84 386.634 26.152C386.778 26.464 386.982 26.7 387.246 26.86C387.51 27.02 387.822 27.1 388.182 27.1C388.582 27.1 388.906 27.024 389.154 26.872C389.402 26.72 389.598 26.508 389.742 26.236L390.762 26.716C390.618 27.004 390.422 27.256 390.174 27.472C389.934 27.68 389.646 27.84 389.31 27.952C388.974 28.064 388.606 28.12 388.206 28.12ZM394.784 28.12C394.184 28.12 393.636 28.004 393.14 27.772C392.644 27.54 392.252 27.212 391.964 26.788L392.852 26.02C393.028 26.348 393.28 26.612 393.608 26.812C393.944 27.004 394.344 27.1 394.808 27.1C395.176 27.1 395.468 27.036 395.684 26.908C395.9 26.78 396.008 26.6 396.008 26.368C396.008 26.216 395.956 26.084 395.852 25.972C395.756 25.852 395.568 25.76 395.288 25.696L394.028 25.432C393.388 25.304 392.932 25.1 392.66 24.82C392.388 24.532 392.252 24.168 392.252 23.728C392.252 23.4 392.348 23.096 392.54 22.816C392.732 22.536 393.012 22.312 393.38 22.144C393.756 21.968 394.204 21.88 394.724 21.88C395.324 21.88 395.836 21.988 396.26 22.204C396.684 22.412 397.008 22.712 397.232 23.104L396.344 23.848C396.192 23.528 395.968 23.292 395.672 23.14C395.376 22.98 395.068 22.9 394.748 22.9C394.492 22.9 394.272 22.932 394.088 22.996C393.904 23.06 393.764 23.148 393.668 23.26C393.572 23.372 393.524 23.504 393.524 23.656C393.524 23.816 393.584 23.956 393.704 24.076C393.824 24.196 394.04 24.288 394.352 24.352L395.72 24.64C396.296 24.752 396.7 24.944 396.932 25.216C397.172 25.48 397.292 25.804 397.292 26.188C397.292 26.572 397.192 26.912 396.992 27.208C396.792 27.496 396.504 27.72 396.128 27.88C395.752 28.04 395.304 28.12 394.784 28.12Z" fill="white"/>
<g opacity="0.06" filter="url(#filter23_f_160_172)">
<ellipse cx="49" cy="22.5" rx="49" ry="22.5" transform="matrix(-1 0 0 1 408 17)" fill="#4DFF7E"/>
</g>
</g>
<path d="M391 6.5H327C317.335 6.5 309.5 14.335 309.5 24C309.5 33.665 317.335 41.5 327 41.5H391C400.665 41.5 408.5 33.665 408.5 24C408.5 14.335 400.665 6.5 391 6.5Z" stroke="#1A1A1A"/>
<path d="M391 6.5H327C317.335 6.5 309.5 14.335 309.5 24C309.5 33.665 317.335 41.5 327 41.5H391C400.665 41.5 408.5 33.665 408.5 24C408.5 14.335 400.665 6.5 391 6.5Z" stroke="url(#paint6_linear_160_172)" stroke-opacity="0.09"/>
</g>
<g filter="url(#filter24_b_160_172)">
<g clip-path="url(#clip3_160_172)">
<path d="M333 253C333 243.611 340.611 236 350 236H367C376.389 236 384 243.611 384 253V253C384 262.389 376.389 270 367 270H350C340.611 270 333 262.389 333 253V253Z" fill="white" fill-opacity="0.1"/>
<path d="M333 253C333 243.611 340.611 236 350 236H367C376.389 236 384 243.611 384 253V253C384 262.389 376.389 270 367 270H350C340.611 270 333 262.389 333 253V253Z" fill="black" fill-opacity="0.2"/>
<path d="M333 253C333 243.611 340.611 236 350 236H367C376.389 236 384 243.611 384 253V253C384 262.389 376.389 270 367 270H350C340.611 270 333 262.389 333 253V253Z" fill="black" fill-opacity="0.2"/>
<path d="M333 253C333 243.611 340.611 236 350 236H367C376.389 236 384 243.611 384 253V253C384 262.389 376.389 270 367 270H350C340.611 270 333 262.389 333 253V253Z" fill="black" fill-opacity="0.2"/>
<path d="M347.464 248.96C348.232 248.96 348.896 249.124 349.456 249.452C350.016 249.78 350.448 250.248 350.752 250.856C351.056 251.464 351.208 252.192 351.208 253.04C351.208 253.888 351.056 254.616 350.752 255.224C350.448 255.832 350.016 256.3 349.456 256.628C348.896 256.956 348.232 257.12 347.464 257.12C346.704 257.12 346.044 256.956 345.484 256.628C344.924 256.3 344.492 255.832 344.188 255.224C343.884 254.616 343.732 253.888 343.732 253.04C343.732 252.192 343.884 251.464 344.188 250.856C344.492 250.248 344.924 249.78 345.484 249.452C346.044 249.124 346.704 248.96 347.464 248.96ZM347.464 250.076C346.968 250.076 346.54 250.192 346.18 250.424C345.828 250.656 345.556 250.992 345.364 251.432C345.172 251.872 345.076 252.408 345.076 253.04C345.076 253.664 345.172 254.2 345.364 254.648C345.556 255.088 345.828 255.424 346.18 255.656C346.54 255.888 346.968 256.004 347.464 256.004C347.968 256.004 348.396 255.888 348.748 255.656C349.108 255.424 349.384 255.088 349.576 254.648C349.768 254.2 349.864 253.664 349.864 253.04C349.864 252.408 349.768 251.872 349.576 251.432C349.384 250.992 349.108 250.656 348.748 250.424C348.396 250.192 347.968 250.076 347.464 250.076ZM358.728 249.08V250.184H356.016V257H354.732V250.184H352.02V249.08H358.728ZM366.549 254.9C366.389 255.38 366.149 255.788 365.829 256.124C365.509 256.452 365.133 256.7 364.701 256.868C364.269 257.036 363.793 257.12 363.273 257.12C362.513 257.12 361.853 256.956 361.293 256.628C360.733 256.3 360.301 255.832 359.997 255.224C359.693 254.616 359.541 253.888 359.541 253.04C359.541 252.192 359.693 251.464 359.997 250.856C360.301 250.248 360.733 249.78 361.293 249.452C361.853 249.124 362.509 248.96 363.261 248.96C363.781 248.96 364.249 249.032 364.665 249.176C365.089 249.32 365.449 249.536 365.745 249.824C366.041 250.112 366.269 250.472 366.429 250.904L365.217 251.444C365.057 250.972 364.825 250.628 364.521 250.412C364.217 250.188 363.821 250.076 363.333 250.076C362.845 250.076 362.417 250.192 362.049 250.424C361.681 250.656 361.393 250.992 361.185 251.432C360.985 251.872 360.885 252.408 360.885 253.04C360.885 253.664 360.981 254.2 361.173 254.648C361.365 255.088 361.641 255.424 362.001 255.656C362.361 255.888 362.793 256.004 363.297 256.004C363.785 256.004 364.205 255.88 364.557 255.632C364.917 255.376 365.173 254.996 365.325 254.492L366.549 254.9ZM370.288 257.12C369.688 257.12 369.14 257.004 368.644 256.772C368.148 256.54 367.756 256.212 367.468 255.788L368.356 255.02C368.532 255.348 368.784 255.612 369.112 255.812C369.448 256.004 369.848 256.1 370.312 256.1C370.68 256.1 370.972 256.036 371.188 255.908C371.404 255.78 371.512 255.6 371.512 255.368C371.512 255.216 371.46 255.084 371.356 254.972C371.26 254.852 371.072 254.76 370.792 254.696L369.532 254.432C368.892 254.304 368.436 254.1 368.164 253.82C367.892 253.532 367.756 253.168 367.756 252.728C367.756 252.4 367.852 252.096 368.044 251.816C368.236 251.536 368.516 251.312 368.884 251.144C369.26 250.968 369.708 250.88 370.228 250.88C370.828 250.88 371.34 250.988 371.764 251.204C372.188 251.412 372.512 251.712 372.736 252.104L371.848 252.848C371.696 252.528 371.472 252.292 371.176 252.14C370.88 251.98 370.572 251.9 370.252 251.9C369.996 251.9 369.776 251.932 369.592 251.996C369.408 252.06 369.268 252.148 369.172 252.26C369.076 252.372 369.028 252.504 369.028 252.656C369.028 252.816 369.088 252.956 369.208 253.076C369.328 253.196 369.544 253.288 369.856 253.352L371.224 253.64C371.8 253.752 372.204 253.944 372.436 254.216C372.676 254.48 372.796 254.804 372.796 255.188C372.796 255.572 372.696 255.912 372.496 256.208C372.296 256.496 372.008 256.72 371.632 256.88C371.256 257.04 370.808 257.12 370.288 257.12Z" fill="white"/>
<g opacity="0.06" filter="url(#filter25_f_160_172)">
<ellipse cx="21.5" cy="22.5" rx="21.5" ry="22.5" transform="matrix(-1 0 0 1 380 240)" fill="#4DFF7E"/>
</g>
</g>
<path d="M367 235.5H350C340.335 235.5 332.5 243.335 332.5 253C332.5 262.665 340.335 270.5 350 270.5H367C376.665 270.5 384.5 262.665 384.5 253C384.5 243.335 376.665 235.5 367 235.5Z" stroke="#1A1A1A"/>
<path d="M367 235.5H350C340.335 235.5 332.5 243.335 332.5 253C332.5 262.665 340.335 270.5 350 270.5H367C376.665 270.5 384.5 262.665 384.5 253C384.5 243.335 376.665 235.5 367 235.5Z" stroke="url(#paint7_linear_160_172)" stroke-opacity="0.15"/>
</g>
<g filter="url(#filter26_b_160_172)">
<g clip-path="url(#clip4_160_172)">
<path d="M597 201C597 191.611 604.611 184 614 184H690C699.389 184 707 191.611 707 201V201C707 210.389 699.389 218 690 218H614C604.611 218 597 210.389 597 201V201Z" fill="white" fill-opacity="0.1"/>
<path d="M597 201C597 191.611 604.611 184 614 184H690C699.389 184 707 191.611 707 201V201C707 210.389 699.389 218 690 218H614C604.611 218 597 210.389 597 201V201Z" fill="black" fill-opacity="0.2"/>
<path d="M597 201C597 191.611 604.611 184 614 184H690C699.389 184 707 191.611 707 201V201C707 210.389 699.389 218 690 218H614C604.611 218 597 210.389 597 201V201Z" fill="black" fill-opacity="0.2"/>
<path d="M597 201C597 191.611 604.611 184 614 184H690C699.389 184 707 191.611 707 201V201C707 210.389 699.389 218 690 218H614C604.611 218 597 210.389 597 201V201Z" fill="black" fill-opacity="0.2"/>
<path d="M614.24 202.9C614.08 203.38 613.84 203.788 613.52 204.124C613.2 204.452 612.824 204.7 612.392 204.868C611.96 205.036 611.484 205.12 610.964 205.12C610.204 205.12 609.544 204.956 608.984 204.628C608.424 204.3 607.992 203.832 607.688 203.224C607.384 202.616 607.232 201.888 607.232 201.04C607.232 200.192 607.384 199.464 607.688 198.856C607.992 198.248 608.424 197.78 608.984 197.452C609.544 197.124 610.2 196.96 610.952 196.96C611.472 196.96 611.94 197.032 612.356 197.176C612.78 197.32 613.14 197.536 613.436 197.824C613.732 198.112 613.96 198.472 614.12 198.904L612.908 199.444C612.748 198.972 612.516 198.628 612.212 198.412C611.908 198.188 611.512 198.076 611.024 198.076C610.536 198.076 610.108 198.192 609.74 198.424C609.372 198.656 609.084 198.992 608.876 199.432C608.676 199.872 608.576 200.408 608.576 201.04C608.576 201.664 608.672 202.2 608.864 202.648C609.056 203.088 609.332 203.424 609.692 203.656C610.052 203.888 610.484 204.004 610.988 204.004C611.476 204.004 611.896 203.88 612.248 203.632C612.608 203.376 612.864 202.996 613.016 202.492L614.24 202.9ZM615.699 205V199H616.791L616.911 200.08C617.071 199.688 617.307 199.392 617.619 199.192C617.939 198.984 618.331 198.88 618.795 198.88C618.915 198.88 619.035 198.892 619.155 198.916C619.275 198.932 619.375 198.96 619.455 199L619.275 200.128C619.187 200.096 619.087 200.072 618.975 200.056C618.871 200.032 618.727 200.02 618.543 200.02C618.295 200.02 618.051 200.088 617.811 200.224C617.571 200.352 617.371 200.548 617.211 200.812C617.059 201.076 616.983 201.412 616.983 201.82V205H615.699ZM625.936 199L623.308 205.708C623.132 206.172 622.94 206.54 622.732 206.812C622.532 207.084 622.3 207.28 622.036 207.4C621.772 207.52 621.464 207.58 621.112 207.58C620.824 207.58 620.556 207.54 620.308 207.46C620.068 207.388 619.856 207.288 619.672 207.16L619.984 206.164C620.136 206.292 620.296 206.388 620.464 206.452C620.64 206.516 620.828 206.548 621.028 206.548C621.244 206.548 621.436 206.488 621.604 206.368C621.78 206.256 621.936 206.028 622.072 205.684L622.336 205.036L621.7 203.548L619.828 199H621.268L622.6 202.768L622.948 203.896L623.344 202.66L624.604 199H625.936ZM627.031 207.52V199H628.171L628.267 200.68L628.099 200.476C628.195 200.164 628.343 199.888 628.543 199.648C628.743 199.408 628.991 199.22 629.287 199.084C629.591 198.948 629.923 198.88 630.283 198.88C630.771 198.88 631.215 199.004 631.615 199.252C632.015 199.5 632.331 199.856 632.563 200.32C632.795 200.776 632.911 201.332 632.911 201.988C632.911 202.644 632.791 203.208 632.551 203.68C632.319 204.144 631.999 204.5 631.591 204.748C631.191 204.996 630.743 205.12 630.247 205.12C629.735 205.12 629.299 204.988 628.939 204.724C628.579 204.452 628.323 204.108 628.171 203.692L628.315 203.488V207.52H627.031ZM629.971 204.076C630.491 204.076 630.895 203.892 631.183 203.524C631.479 203.156 631.627 202.648 631.627 202C631.627 201.352 631.483 200.844 631.195 200.476C630.907 200.1 630.507 199.912 629.995 199.912C629.659 199.912 629.363 200 629.107 200.176C628.859 200.344 628.663 200.584 628.519 200.896C628.383 201.2 628.315 201.568 628.315 202C628.315 202.424 628.383 202.792 628.519 203.104C628.655 203.416 628.847 203.656 629.095 203.824C629.343 203.992 629.635 204.076 629.971 204.076ZM636.225 197.236V203.2C636.225 203.496 636.301 203.712 636.453 203.848C636.613 203.984 636.825 204.052 637.089 204.052C637.305 204.052 637.493 204.02 637.653 203.956C637.813 203.884 637.961 203.788 638.097 203.668L638.385 204.604C638.201 204.764 637.973 204.892 637.701 204.988C637.437 205.076 637.141 205.12 636.813 205.12C636.469 205.12 636.153 205.064 635.865 204.952C635.577 204.84 635.353 204.66 635.193 204.412C635.033 204.156 634.949 203.824 634.941 203.416V197.596L636.225 197.236ZM638.289 199V200.008H633.789V199H638.289ZM642.163 198.88C642.747 198.88 643.263 199.004 643.711 199.252C644.159 199.5 644.507 199.86 644.755 200.332C645.011 200.796 645.139 201.352 645.139 202C645.139 202.648 645.011 203.208 644.755 203.68C644.507 204.144 644.159 204.5 643.711 204.748C643.263 204.996 642.747 205.12 642.163 205.12C641.579 205.12 641.063 204.996 640.615 204.748C640.167 204.5 639.815 204.144 639.559 203.68C639.303 203.208 639.175 202.648 639.175 202C639.175 201.352 639.303 200.796 639.559 200.332C639.815 199.86 640.167 199.5 640.615 199.252C641.063 199.004 641.579 198.88 642.163 198.88ZM642.163 199.888C641.803 199.888 641.495 199.972 641.239 200.14C640.991 200.3 640.799 200.536 640.663 200.848C640.527 201.16 640.459 201.544 640.459 202C640.459 202.448 640.527 202.832 640.663 203.152C640.799 203.464 640.991 203.704 641.239 203.872C641.495 204.032 641.803 204.112 642.163 204.112C642.523 204.112 642.827 204.032 643.075 203.872C643.323 203.704 643.515 203.464 643.651 203.152C643.787 202.832 643.855 202.448 643.855 202C643.855 201.544 643.787 201.16 643.651 200.848C643.515 200.536 643.323 200.3 643.075 200.14C642.827 199.972 642.523 199.888 642.163 199.888ZM649.346 198.88C649.826 198.88 650.234 198.952 650.57 199.096C650.914 199.232 651.202 199.428 651.434 199.684C651.666 199.94 651.842 200.232 651.962 200.56L650.75 201.04C650.646 200.672 650.478 200.392 650.246 200.2C650.022 200 649.726 199.9 649.358 199.9C648.998 199.9 648.69 199.984 648.434 200.152C648.178 200.312 647.982 200.548 647.846 200.86C647.718 201.172 647.654 201.556 647.654 202.012C647.654 202.46 647.722 202.84 647.858 203.152C647.994 203.464 648.19 203.7 648.446 203.86C648.702 204.02 649.006 204.1 649.358 204.1C649.63 204.1 649.866 204.056 650.066 203.968C650.266 203.872 650.43 203.74 650.558 203.572C650.694 203.396 650.786 203.184 650.834 202.936L651.998 203.332C651.886 203.692 651.71 204.008 651.47 204.28C651.238 204.544 650.946 204.752 650.594 204.904C650.242 205.048 649.838 205.12 649.382 205.12C648.79 205.12 648.266 204.996 647.81 204.748C647.354 204.5 646.998 204.144 646.742 203.68C646.494 203.208 646.37 202.648 646.37 202C646.37 201.352 646.494 200.796 646.742 200.332C646.998 199.86 647.35 199.5 647.798 199.252C648.254 199.004 648.77 198.88 649.346 198.88ZM655.628 205.12C655.236 205.12 654.872 205.048 654.536 204.904C654.208 204.76 653.944 204.528 653.744 204.208C653.544 203.888 653.444 203.472 653.444 202.96V199H654.728V202.636C654.728 203.18 654.844 203.556 655.076 203.764C655.308 203.964 655.632 204.064 656.048 204.064C656.248 204.064 656.44 204.032 656.624 203.968C656.816 203.896 656.988 203.788 657.14 203.644C657.292 203.492 657.408 203.3 657.488 203.068C657.576 202.836 657.62 202.564 657.62 202.252V199H658.904V205H657.776L657.716 204.028C657.508 204.404 657.228 204.68 656.876 204.856C656.524 205.032 656.108 205.12 655.628 205.12ZM660.91 205V199H662.002L662.122 200.08C662.282 199.688 662.518 199.392 662.83 199.192C663.15 198.984 663.542 198.88 664.006 198.88C664.126 198.88 664.246 198.892 664.366 198.916C664.486 198.932 664.586 198.96 664.666 199L664.486 200.128C664.398 200.096 664.298 200.072 664.186 200.056C664.082 200.032 663.938 200.02 663.754 200.02C663.506 200.02 663.262 200.088 663.022 200.224C662.782 200.352 662.582 200.548 662.422 200.812C662.27 201.076 662.194 201.412 662.194 201.82V205H660.91ZM665.879 205V199H666.971L667.091 200.08C667.251 199.688 667.487 199.392 667.799 199.192C668.119 198.984 668.511 198.88 668.975 198.88C669.095 198.88 669.215 198.892 669.335 198.916C669.455 198.932 669.555 198.96 669.635 199L669.455 200.128C669.367 200.096 669.267 200.072 669.155 200.056C669.051 200.032 668.907 200.02 668.723 200.02C668.475 200.02 668.231 200.088 667.991 200.224C667.751 200.352 667.551 200.548 667.391 200.812C667.239 201.076 667.163 201.412 667.163 201.82V205H665.879ZM673.335 205.12C672.735 205.12 672.207 204.996 671.751 204.748C671.295 204.5 670.939 204.144 670.683 203.68C670.435 203.208 670.311 202.648 670.311 202C670.311 201.352 670.435 200.796 670.683 200.332C670.939 199.86 671.291 199.5 671.739 199.252C672.187 199.004 672.695 198.88 673.263 198.88C673.847 198.88 674.343 199 674.751 199.24C675.159 199.48 675.471 199.808 675.687 200.224C675.903 200.64 676.011 201.112 676.011 201.64C676.011 201.784 676.007 201.92 675.999 202.048C675.991 202.176 675.979 202.288 675.963 202.384H671.139V201.4H675.399L674.763 201.592C674.763 201.048 674.627 200.632 674.355 200.344C674.083 200.048 673.711 199.9 673.239 199.9C672.895 199.9 672.595 199.98 672.339 200.14C672.083 200.3 671.887 200.54 671.751 200.86C671.615 201.172 671.547 201.556 671.547 202.012C671.547 202.46 671.619 202.84 671.763 203.152C671.907 203.464 672.111 203.7 672.375 203.86C672.639 204.02 672.951 204.1 673.311 204.1C673.711 204.1 674.035 204.024 674.283 203.872C674.531 203.72 674.727 203.508 674.871 203.236L675.891 203.716C675.747 204.004 675.551 204.256 675.303 204.472C675.063 204.68 674.775 204.84 674.439 204.952C674.103 205.064 673.735 205.12 673.335 205.12ZM677.633 205V199H678.773L678.857 200.56L678.689 200.392C678.801 200.048 678.961 199.764 679.169 199.54C679.385 199.308 679.637 199.14 679.925 199.036C680.221 198.932 680.533 198.88 680.861 198.88C681.285 198.88 681.665 198.964 682.001 199.132C682.345 199.292 682.617 199.536 682.817 199.864C683.017 200.192 683.117 200.608 683.117 201.112V205H681.833V201.508C681.833 200.916 681.709 200.508 681.461 200.284C681.221 200.052 680.917 199.936 680.549 199.936C680.285 199.936 680.029 200 679.781 200.128C679.533 200.248 679.325 200.444 679.157 200.716C678.997 200.988 678.917 201.352 678.917 201.808V205H677.633ZM687.654 198.88C688.134 198.88 688.542 198.952 688.878 199.096C689.222 199.232 689.51 199.428 689.742 199.684C689.974 199.94 690.15 200.232 690.27 200.56L689.058 201.04C688.954 200.672 688.786 200.392 688.554 200.2C688.33 200 688.034 199.9 687.666 199.9C687.306 199.9 686.998 199.984 686.742 200.152C686.486 200.312 686.29 200.548 686.154 200.86C686.026 201.172 685.962 201.556 685.962 202.012C685.962 202.46 686.03 202.84 686.166 203.152C686.302 203.464 686.498 203.7 686.754 203.86C687.01 204.02 687.314 204.1 687.666 204.1C687.938 204.1 688.174 204.056 688.374 203.968C688.574 203.872 688.738 203.74 688.866 203.572C689.002 203.396 689.094 203.184 689.142 202.936L690.306 203.332C690.194 203.692 690.018 204.008 689.778 204.28C689.546 204.544 689.254 204.752 688.902 204.904C688.55 205.048 688.146 205.12 687.69 205.12C687.098 205.12 686.574 204.996 686.118 204.748C685.662 204.5 685.306 204.144 685.05 203.68C684.802 203.208 684.678 202.648 684.678 202C684.678 201.352 684.802 200.796 685.05 200.332C685.306 199.86 685.658 199.5 686.106 199.252C686.562 199.004 687.078 198.88 687.654 198.88ZM696.881 199L694.253 205.708C694.077 206.172 693.885 206.54 693.677 206.812C693.477 207.084 693.245 207.28 692.981 207.4C692.717 207.52 692.409 207.58 692.057 207.58C691.769 207.58 691.501 207.54 691.253 207.46C691.013 207.388 690.801 207.288 690.617 207.16L690.929 206.164C691.081 206.292 691.241 206.388 691.409 206.452C691.585 206.516 691.773 206.548 691.973 206.548C692.189 206.548 692.381 206.488 692.549 206.368C692.725 206.256 692.881 206.028 693.017 205.684L693.281 205.036L692.645 203.548L690.773 199H692.213L693.545 202.768L693.893 203.896L694.289 202.66L695.549 199H696.881Z" fill="white"/>
<g opacity="0.06" filter="url(#filter27_f_160_172)">
<ellipse cx="21.5" cy="22.5" rx="21.5" ry="22.5" transform="matrix(-1 0 0 1 618 194)" fill="#4DFF7E"/>
</g>
</g>
<path d="M690 183.5H614C604.335 183.5 596.5 191.335 596.5 201C596.5 210.665 604.335 218.5 614 218.5H690C699.665 218.5 707.5 210.665 707.5 201C707.5 191.335 699.665 183.5 690 183.5Z" stroke="#1A1A1A"/>
<path d="M690 183.5H614C604.335 183.5 596.5 191.335 596.5 201C596.5 210.665 604.335 218.5 614 218.5H690C699.665 218.5 707.5 210.665 707.5 201C707.5 191.335 699.665 183.5 690 183.5Z" stroke="url(#paint8_linear_160_172)" stroke-opacity="0.23"/>
</g>
<g filter="url(#filter28_b_160_172)">
<g clip-path="url(#clip5_160_172)">
<path d="M129 243C129 233.611 136.611 226 146 226H164C173.389 226 181 233.611 181 243V243C181 252.389 173.389 260 164 260H146C136.611 260 129 252.389 129 243V243Z" fill="white" fill-opacity="0.1"/>
<path d="M129 243C129 233.611 136.611 226 146 226H164C173.389 226 181 233.611 181 243V243C181 252.389 173.389 260 164 260H146C136.611 260 129 252.389 129 243V243Z" fill="black" fill-opacity="0.2"/>
<path d="M129 243C129 233.611 136.611 226 146 226H164C173.389 226 181 233.611 181 243V243C181 252.389 173.389 260 164 260H146C136.611 260 129 252.389 129 243V243Z" fill="black" fill-opacity="0.2"/>
<path d="M129 243C129 233.611 136.611 226 146 226H164C173.389 226 181 233.611 181 243V243C181 252.389 173.389 260 164 260H146C136.611 260 129 252.389 129 243V243Z" fill="black" fill-opacity="0.2"/>
<path d="M145.4 240.184H140.96V242.488H144.44V243.592H140.96V247H139.676V239.08H145.4V240.184ZM148.803 240.88C149.387 240.88 149.903 241.004 150.351 241.252C150.799 241.5 151.147 241.86 151.395 242.332C151.651 242.796 151.779 243.352 151.779 244C151.779 244.648 151.651 245.208 151.395 245.68C151.147 246.144 150.799 246.5 150.351 246.748C149.903 246.996 149.387 247.12 148.803 247.12C148.219 247.12 147.703 246.996 147.255 246.748C146.807 246.5 146.455 246.144 146.199 245.68C145.943 245.208 145.815 244.648 145.815 244C145.815 243.352 145.943 242.796 146.199 242.332C146.455 241.86 146.807 241.5 147.255 241.252C147.703 241.004 148.219 240.88 148.803 240.88ZM148.803 241.888C148.443 241.888 148.135 241.972 147.879 242.14C147.631 242.3 147.439 242.536 147.303 242.848C147.167 243.16 147.099 243.544 147.099 244C147.099 244.448 147.167 244.832 147.303 245.152C147.439 245.464 147.631 245.704 147.879 245.872C148.135 246.032 148.443 246.112 148.803 246.112C149.163 246.112 149.467 246.032 149.715 245.872C149.963 245.704 150.155 245.464 150.291 245.152C150.427 244.832 150.495 244.448 150.495 244C150.495 243.544 150.427 243.16 150.291 242.848C150.155 242.536 149.963 242.3 149.715 242.14C149.467 241.972 149.163 241.888 148.803 241.888ZM153.394 247V241H154.486L154.606 242.08C154.766 241.688 155.002 241.392 155.314 241.192C155.634 240.984 156.026 240.88 156.49 240.88C156.61 240.88 156.73 240.892 156.85 240.916C156.97 240.932 157.07 240.96 157.15 241L156.97 242.128C156.882 242.096 156.782 242.072 156.67 242.056C156.566 242.032 156.422 242.02 156.238 242.02C155.99 242.02 155.746 242.088 155.506 242.224C155.266 242.352 155.066 242.548 154.906 242.812C154.754 243.076 154.678 243.412 154.678 243.82V247H153.394ZM160.851 247.12C160.251 247.12 159.723 246.996 159.267 246.748C158.811 246.5 158.455 246.144 158.199 245.68C157.951 245.208 157.827 244.648 157.827 244C157.827 243.352 157.951 242.796 158.199 242.332C158.455 241.86 158.807 241.5 159.255 241.252C159.703 241.004 160.211 240.88 160.779 240.88C161.363 240.88 161.859 241 162.267 241.24C162.675 241.48 162.987 241.808 163.203 242.224C163.419 242.64 163.527 243.112 163.527 243.64C163.527 243.784 163.523 243.92 163.515 244.048C163.507 244.176 163.495 244.288 163.479 244.384H158.655V243.4H162.915L162.279 243.592C162.279 243.048 162.143 242.632 161.871 242.344C161.599 242.048 161.227 241.9 160.755 241.9C160.411 241.9 160.111 241.98 159.855 242.14C159.599 242.3 159.403 242.54 159.267 242.86C159.131 243.172 159.063 243.556 159.063 244.012C159.063 244.46 159.135 244.84 159.279 245.152C159.423 245.464 159.627 245.7 159.891 245.86C160.155 246.02 160.467 246.1 160.827 246.1C161.227 246.1 161.551 246.024 161.799 245.872C162.047 245.72 162.243 245.508 162.387 245.236L163.407 245.716C163.263 246.004 163.067 246.256 162.819 246.472C162.579 246.68 162.291 246.84 161.955 246.952C161.619 247.064 161.251 247.12 160.851 247.12ZM165.838 241L167.53 243.568L167.77 243.604L170.206 247H168.682L166.918 244.36L166.642 244.264L164.29 241H165.838ZM170.17 241L167.818 244.216L167.554 244.204L165.634 247H164.17L166.726 243.58L166.978 243.604L168.694 241H170.17Z" fill="white"/>
<g opacity="0.06" filter="url(#filter29_f_160_172)">
<ellipse cx="21.5" cy="22.5" rx="21.5" ry="22.5" transform="matrix(-1 0 0 1 202 236)" fill="#4DFF7E"/>
</g>
</g>
<path d="M164 225.5H146C136.335 225.5 128.5 233.335 128.5 243C128.5 252.665 136.335 260.5 146 260.5H164C173.665 260.5 181.5 252.665 181.5 243C181.5 233.335 173.665 225.5 164 225.5Z" stroke="#1A1A1A"/>
<path d="M164 225.5H146C136.335 225.5 128.5 233.335 128.5 243C128.5 252.665 136.335 260.5 146 260.5H164C173.665 260.5 181.5 252.665 181.5 243C181.5 233.335 173.665 225.5 164 225.5Z" stroke="url(#paint9_linear_160_172)" stroke-opacity="0.23"/>
</g>
<g filter="url(#filter30_b_160_172)">
<g clip-path="url(#clip6_160_172)">
<path d="M328 118C328 108.611 335.611 101 345 101H373C382.389 101 390 108.611 390 118V118C390 127.389 382.389 135 373 135H345C335.611 135 328 127.389 328 118V118Z" fill="white" fill-opacity="0.1"/>
<path d="M328 118C328 108.611 335.611 101 345 101H373C382.389 101 390 108.611 390 118V118C390 127.389 382.389 135 373 135H345C335.611 135 328 127.389 328 118V118Z" fill="black" fill-opacity="0.2"/>
<path d="M328 118C328 108.611 335.611 101 345 101H373C382.389 101 390 108.611 390 118V118C390 127.389 382.389 135 373 135H345C335.611 135 328 127.389 328 118V118Z" fill="black" fill-opacity="0.2"/>
<path d="M328 118C328 108.611 335.611 101 345 101H373C382.389 101 390 108.611 390 118V118C390 127.389 382.389 135 373 135H345C335.611 135 328 127.389 328 118V118Z" fill="black" fill-opacity="0.2"/>
<path d="M340.46 114.08V122H339.176V114.08H340.46ZM342.582 122V116H343.722L343.806 117.56L343.638 117.392C343.75 117.048 343.91 116.764 344.118 116.54C344.334 116.308 344.586 116.14 344.874 116.036C345.17 115.932 345.482 115.88 345.81 115.88C346.234 115.88 346.614 115.964 346.95 116.132C347.294 116.292 347.566 116.536 347.766 116.864C347.966 117.192 348.066 117.608 348.066 118.112V122H346.782V118.508C346.782 117.916 346.658 117.508 346.41 117.284C346.17 117.052 345.866 116.936 345.498 116.936C345.234 116.936 344.978 117 344.73 117.128C344.482 117.248 344.274 117.444 344.106 117.716C343.946 117.988 343.866 118.352 343.866 118.808V122H342.582ZM352.316 122.12C351.82 122.12 351.368 121.996 350.96 121.748C350.56 121.5 350.244 121.144 350.012 120.68C349.78 120.216 349.664 119.66 349.664 119.012C349.664 118.34 349.788 117.772 350.036 117.308C350.284 116.844 350.616 116.492 351.032 116.252C351.448 116.004 351.904 115.88 352.4 115.88C352.912 115.88 353.344 116.02 353.696 116.3C354.048 116.58 354.284 116.944 354.404 117.392L354.26 117.524V113.3H355.544V122H354.404L354.308 120.368L354.476 120.38C354.42 120.74 354.288 121.052 354.08 121.316C353.872 121.572 353.612 121.772 353.3 121.916C352.996 122.052 352.668 122.12 352.316 122.12ZM352.592 121.088C352.936 121.088 353.232 121 353.48 120.824C353.728 120.648 353.92 120.4 354.056 120.08C354.192 119.76 354.26 119.376 354.26 118.928C354.26 118.512 354.192 118.156 354.056 117.86C353.92 117.556 353.728 117.324 353.48 117.164C353.24 117.004 352.96 116.924 352.64 116.924C352.104 116.924 351.688 117.108 351.392 117.476C351.096 117.844 350.948 118.352 350.948 119C350.948 119.648 351.092 120.16 351.38 120.536C351.668 120.904 352.072 121.088 352.592 121.088ZM358.183 114.992C357.903 114.992 357.687 114.924 357.535 114.788C357.391 114.644 357.319 114.444 357.319 114.188C357.319 113.932 357.391 113.736 357.535 113.6C357.687 113.464 357.903 113.396 358.183 113.396C358.455 113.396 358.663 113.464 358.807 113.6C358.959 113.736 359.035 113.932 359.035 114.188C359.035 114.444 358.959 114.644 358.807 114.788C358.663 114.924 358.455 114.992 358.183 114.992ZM358.819 116V122H357.535V116H358.819ZM363.42 115.88C363.9 115.88 364.308 115.952 364.644 116.096C364.988 116.232 365.276 116.428 365.508 116.684C365.74 116.94 365.916 117.232 366.036 117.56L364.824 118.04C364.72 117.672 364.552 117.392 364.32 117.2C364.096 117 363.8 116.9 363.432 116.9C363.072 116.9 362.764 116.984 362.508 117.152C362.252 117.312 362.056 117.548 361.92 117.86C361.792 118.172 361.728 118.556 361.728 119.012C361.728 119.46 361.796 119.84 361.932 120.152C362.068 120.464 362.264 120.7 362.52 120.86C362.776 121.02 363.08 121.1 363.432 121.1C363.704 121.1 363.94 121.056 364.14 120.968C364.34 120.872 364.504 120.74 364.632 120.572C364.768 120.396 364.86 120.184 364.908 119.936L366.072 120.332C365.96 120.692 365.784 121.008 365.544 121.28C365.312 121.544 365.02 121.752 364.668 121.904C364.316 122.048 363.912 122.12 363.456 122.12C362.864 122.12 362.34 121.996 361.884 121.748C361.428 121.5 361.072 121.144 360.816 120.68C360.568 120.208 360.444 119.648 360.444 119C360.444 118.352 360.568 117.796 360.816 117.332C361.072 116.86 361.424 116.5 361.872 116.252C362.328 116.004 362.844 115.88 363.42 115.88ZM370.206 122.12C369.606 122.12 369.078 121.996 368.622 121.748C368.166 121.5 367.81 121.144 367.554 120.68C367.306 120.208 367.182 119.648 367.182 119C367.182 118.352 367.306 117.796 367.554 117.332C367.81 116.86 368.162 116.5 368.61 116.252C369.058 116.004 369.566 115.88 370.134 115.88C370.718 115.88 371.214 116 371.622 116.24C372.03 116.48 372.342 116.808 372.558 117.224C372.774 117.64 372.882 118.112 372.882 118.64C372.882 118.784 372.878 118.92 372.87 119.048C372.862 119.176 372.85 119.288 372.834 119.384H368.01V118.4H372.27L371.634 118.592C371.634 118.048 371.498 117.632 371.226 117.344C370.954 117.048 370.582 116.9 370.11 116.9C369.766 116.9 369.466 116.98 369.21 117.14C368.954 117.3 368.758 117.54 368.622 117.86C368.486 118.172 368.418 118.556 368.418 119.012C368.418 119.46 368.49 119.84 368.634 120.152C368.778 120.464 368.982 120.7 369.246 120.86C369.51 121.02 369.822 121.1 370.182 121.1C370.582 121.1 370.906 121.024 371.154 120.872C371.402 120.72 371.598 120.508 371.742 120.236L372.762 120.716C372.618 121.004 372.422 121.256 372.174 121.472C371.934 121.68 371.646 121.84 371.31 121.952C370.974 122.064 370.606 122.12 370.206 122.12ZM376.784 122.12C376.184 122.12 375.636 122.004 375.14 121.772C374.644 121.54 374.252 121.212 373.964 120.788L374.852 120.02C375.028 120.348 375.28 120.612 375.608 120.812C375.944 121.004 376.344 121.1 376.808 121.1C377.176 121.1 377.468 121.036 377.684 120.908C377.9 120.78 378.008 120.6 378.008 120.368C378.008 120.216 377.956 120.084 377.852 119.972C377.756 119.852 377.568 119.76 377.288 119.696L376.028 119.432C375.388 119.304 374.932 119.1 374.66 118.82C374.388 118.532 374.252 118.168 374.252 117.728C374.252 117.4 374.348 117.096 374.54 116.816C374.732 116.536 375.012 116.312 375.38 116.144C375.756 115.968 376.204 115.88 376.724 115.88C377.324 115.88 377.836 115.988 378.26 116.204C378.684 116.412 379.008 116.712 379.232 117.104L378.344 117.848C378.192 117.528 377.968 117.292 377.672 117.14C377.376 116.98 377.068 116.9 376.748 116.9C376.492 116.9 376.272 116.932 376.088 116.996C375.904 117.06 375.764 117.148 375.668 117.26C375.572 117.372 375.524 117.504 375.524 117.656C375.524 117.816 375.584 117.956 375.704 118.076C375.824 118.196 376.04 118.288 376.352 118.352L377.72 118.64C378.296 118.752 378.7 118.944 378.932 119.216C379.172 119.48 379.292 119.804 379.292 120.188C379.292 120.572 379.192 120.912 378.992 121.208C378.792 121.496 378.504 121.72 378.128 121.88C377.752 122.04 377.304 122.12 376.784 122.12Z" fill="white"/>
<g opacity="0.06" filter="url(#filter31_f_160_172)">
<ellipse cx="21.5" cy="22.5" rx="21.5" ry="22.5" transform="matrix(-1 0 0 1 381 112)" fill="#4DFF7E"/>
</g>
</g>
<path d="M373 100.5H345C335.335 100.5 327.5 108.335 327.5 118C327.5 127.665 335.335 135.5 345 135.5H373C382.665 135.5 390.5 127.665 390.5 118C390.5 108.335 382.665 100.5 373 100.5Z" stroke="#1A1A1A"/>
<path d="M373 100.5H345C335.335 100.5 327.5 108.335 327.5 118C327.5 127.665 335.335 135.5 345 135.5H373C382.665 135.5 390.5 127.665 390.5 118C390.5 108.335 382.665 100.5 373 100.5Z" stroke="url(#paint10_linear_160_172)" stroke-opacity="0.23"/>
</g>
<g filter="url(#filter32_b_160_172)">
<g clip-path="url(#clip7_160_172)">
<path d="M536 243C536 233.611 543.611 226 553 226H584C593.389 226 601 233.611 601 243V243C601 252.389 593.389 260 584 260H553C543.611 260 536 252.389 536 243V243Z" fill="white" fill-opacity="0.1"/>
<path d="M536 243C536 233.611 543.611 226 553 226H584C593.389 226 601 233.611 601 243V243C601 252.389 593.389 260 584 260H553C543.611 260 536 252.389 536 243V243Z" fill="black" fill-opacity="0.2"/>
<path d="M536 243C536 233.611 543.611 226 553 226H584C593.389 226 601 233.611 601 243V243C601 252.389 593.389 260 584 260H553C543.611 260 536 252.389 536 243V243Z" fill="black" fill-opacity="0.2"/>
<path d="M536 243C536 233.611 543.611 226 553 226H584C593.389 226 601 233.611 601 243V243C601 252.389 593.389 260 584 260H553C543.611 260 536 252.389 536 243V243Z" fill="black" fill-opacity="0.2"/>
<path d="M552.9 240.184H548.46V242.488H551.94V243.592H548.46V247H547.176V239.08H552.9V240.184ZM556.058 247.12C555.666 247.12 555.302 247.048 554.966 246.904C554.638 246.76 554.374 246.528 554.174 246.208C553.974 245.888 553.874 245.472 553.874 244.96V241H555.158V244.636C555.158 245.18 555.274 245.556 555.506 245.764C555.738 245.964 556.062 246.064 556.478 246.064C556.678 246.064 556.87 246.032 557.054 245.968C557.246 245.896 557.418 245.788 557.57 245.644C557.722 245.492 557.838 245.3 557.918 245.068C558.006 244.836 558.05 244.564 558.05 244.252V241H559.334V247H558.206L558.146 246.028C557.938 246.404 557.658 246.68 557.306 246.856C556.954 247.032 556.538 247.12 556.058 247.12ZM563.092 239.236V245.2C563.092 245.496 563.168 245.712 563.32 245.848C563.48 245.984 563.692 246.052 563.956 246.052C564.172 246.052 564.36 246.02 564.52 245.956C564.68 245.884 564.828 245.788 564.964 245.668L565.252 246.604C565.068 246.764 564.84 246.892 564.568 246.988C564.304 247.076 564.008 247.12 563.68 247.12C563.336 247.12 563.02 247.064 562.732 246.952C562.444 246.84 562.22 246.66 562.06 246.412C561.9 246.156 561.816 245.824 561.808 245.416V239.596L563.092 239.236ZM565.156 241V242.008H560.656V241H565.156ZM568.562 247.12C568.17 247.12 567.806 247.048 567.47 246.904C567.142 246.76 566.878 246.528 566.678 246.208C566.478 245.888 566.378 245.472 566.378 244.96V241H567.662V244.636C567.662 245.18 567.778 245.556 568.01 245.764C568.242 245.964 568.566 246.064 568.982 246.064C569.182 246.064 569.374 246.032 569.558 245.968C569.75 245.896 569.922 245.788 570.074 245.644C570.226 245.492 570.342 245.3 570.422 245.068C570.51 244.836 570.554 244.564 570.554 244.252V241H571.838V247H570.71L570.65 246.028C570.442 246.404 570.162 246.68 569.81 246.856C569.458 247.032 569.042 247.12 568.562 247.12ZM573.844 247V241H574.936L575.056 242.08C575.216 241.688 575.452 241.392 575.764 241.192C576.084 240.984 576.476 240.88 576.94 240.88C577.06 240.88 577.18 240.892 577.3 240.916C577.42 240.932 577.52 240.96 577.6 241L577.42 242.128C577.332 242.096 577.232 242.072 577.12 242.056C577.016 242.032 576.872 242.02 576.688 242.02C576.44 242.02 576.196 242.088 575.956 242.224C575.716 242.352 575.516 242.548 575.356 242.812C575.204 243.076 575.128 243.412 575.128 243.82V247H573.844ZM581.3 247.12C580.7 247.12 580.172 246.996 579.716 246.748C579.26 246.5 578.904 246.144 578.648 245.68C578.4 245.208 578.276 244.648 578.276 244C578.276 243.352 578.4 242.796 578.648 242.332C578.904 241.86 579.256 241.5 579.704 241.252C580.152 241.004 580.66 240.88 581.228 240.88C581.812 240.88 582.308 241 582.716 241.24C583.124 241.48 583.436 241.808 583.652 242.224C583.868 242.64 583.976 243.112 583.976 243.64C583.976 243.784 583.972 243.92 583.964 244.048C583.956 244.176 583.944 244.288 583.928 244.384H579.104V243.4H583.364L582.728 243.592C582.728 243.048 582.592 242.632 582.32 242.344C582.048 242.048 581.676 241.9 581.204 241.9C580.86 241.9 580.56 241.98 580.304 242.14C580.048 242.3 579.852 242.54 579.716 242.86C579.58 243.172 579.512 243.556 579.512 244.012C579.512 244.46 579.584 244.84 579.728 245.152C579.872 245.464 580.076 245.7 580.34 245.86C580.604 246.02 580.916 246.1 581.276 246.1C581.676 246.1 582 246.024 582.248 245.872C582.496 245.72 582.692 245.508 582.836 245.236L583.856 245.716C583.712 246.004 583.516 246.256 583.268 246.472C583.028 246.68 582.74 246.84 582.404 246.952C582.068 247.064 581.7 247.12 581.3 247.12ZM587.878 247.12C587.278 247.12 586.73 247.004 586.234 246.772C585.738 246.54 585.346 246.212 585.058 245.788L585.946 245.02C586.122 245.348 586.374 245.612 586.702 245.812C587.038 246.004 587.438 246.1 587.902 246.1C588.27 246.1 588.562 246.036 588.778 245.908C588.994 245.78 589.102 245.6 589.102 245.368C589.102 245.216 589.05 245.084 588.946 244.972C588.85 244.852 588.662 244.76 588.382 244.696L587.122 244.432C586.482 244.304 586.026 244.1 585.754 243.82C585.482 243.532 585.346 243.168 585.346 242.728C585.346 242.4 585.442 242.096 585.634 241.816C585.826 241.536 586.106 241.312 586.474 241.144C586.85 240.968 587.298 240.88 587.818 240.88C588.418 240.88 588.93 240.988 589.354 241.204C589.778 241.412 590.102 241.712 590.326 242.104L589.438 242.848C589.286 242.528 589.062 242.292 588.766 242.14C588.47 241.98 588.162 241.9 587.842 241.9C587.586 241.9 587.366 241.932 587.182 241.996C586.998 242.06 586.858 242.148 586.762 242.26C586.666 242.372 586.618 242.504 586.618 242.656C586.618 242.816 586.678 242.956 586.798 243.076C586.918 243.196 587.134 243.288 587.446 243.352L588.814 243.64C589.39 243.752 589.794 243.944 590.026 244.216C590.266 244.48 590.386 244.804 590.386 245.188C590.386 245.572 590.286 245.912 590.086 246.208C589.886 246.496 589.598 246.72 589.222 246.88C588.846 247.04 588.398 247.12 587.878 247.12Z" fill="white"/>
<g opacity="0.14" filter="url(#filter33_f_160_172)">
<ellipse cx="22" cy="22.5" rx="22" ry="22.5" transform="matrix(-1 0 0 1 558 236)" fill="#4DFF7E"/>
</g>
</g>
<path d="M584 225.5H553C543.335 225.5 535.5 233.335 535.5 243C535.5 252.665 543.335 260.5 553 260.5H584C593.665 260.5 601.5 252.665 601.5 243C601.5 233.335 593.665 225.5 584 225.5Z" stroke="#1A1A1A"/>
<path d="M584 225.5H553C543.335 225.5 535.5 233.335 535.5 243C535.5 252.665 543.335 260.5 553 260.5H584C593.665 260.5 601.5 252.665 601.5 243C601.5 233.335 593.665 225.5 584 225.5Z" stroke="url(#paint11_linear_160_172)" stroke-opacity="0.22"/>
</g>
<g filter="url(#filter34_f_160_172)">
<ellipse cx="358.5" cy="320.5" rx="29.5" ry="7.5" fill="#4DFF7E"/>
</g>
<g filter="url(#filter35_b_160_172)">
<path d="M23.3628 375.61C20.1482 306.492 38.3507 238.067 75.4839 179.682C112.617 121.297 166.87 75.7998 230.831 49.4058C294.792 23.0118 365.342 17.0081 432.844 32.2148C500.345 47.4216 561.505 83.0971 607.97 134.368L359 360L23.3628 375.61Z" fill="url(#paint12_linear_160_172)" fill-opacity="0.24"/>
</g>
<path d="M608 134L359 361" stroke="#4DFF7E"/>
<g filter="url(#filter36_f_160_172)">
<path d="M607.5 135L359 360.5" stroke="#4DFF7E"/>
</g>
</g>
<defs>
<filter id="filter0_b_160_172" x="276.5" y="277.5" width="16" height="16" filterUnits="userSpaceOnUse" color-interpolation-filters="sRGB">
<feFlood flood-opacity="0" result="BackgroundImageFix"/>
<feGaussianBlur in="BackgroundImageFix" stdDeviation="2"/>
<feComposite in2="SourceAlpha" operator="in" result="effect1_backgroundBlur_160_172"/>
<feBlend mode="normal" in="SourceGraphic" in2="effect1_backgroundBlur_160_172" result="shape"/>
</filter>
<filter id="filter1_b_160_172" x="226.5" y="227.5" width="16" height="16" filterUnits="userSpaceOnUse" color-interpolation-filters="sRGB">
<feFlood flood-opacity="0" result="BackgroundImageFix"/>
<feGaussianBlur in="BackgroundImageFix" stdDeviation="2"/>
<feComposite in2="SourceAlpha" operator="in" result="effect1_backgroundBlur_160_172"/>
<feBlend mode="normal" in="SourceGraphic" in2="effect1_backgroundBlur_160_172" result="shape"/>
</filter>
<filter id="filter2_b_160_172" x="183.5" y="184.5" width="16" height="16" filterUnits="userSpaceOnUse" color-interpolation-filters="sRGB">
<feFlood flood-opacity="0" result="BackgroundImageFix"/>
<feGaussianBlur in="BackgroundImageFix" stdDeviation="2"/>
<feComposite in2="SourceAlpha" operator="in" result="effect1_backgroundBlur_160_172"/>
<feBlend mode="normal" in="SourceGraphic" in2="effect1_backgroundBlur_160_172" result="shape"/>
</filter>
<filter id="filter3_b_160_172" x="145.5" y="146.5" width="16" height="16" filterUnits="userSpaceOnUse" color-interpolation-filters="sRGB">
<feFlood flood-opacity="0" result="BackgroundImageFix"/>
<feGaussianBlur in="BackgroundImageFix" stdDeviation="2"/>
<feComposite in2="SourceAlpha" operator="in" result="effect1_backgroundBlur_160_172"/>
<feBlend mode="normal" in="SourceGraphic" in2="effect1_backgroundBlur_160_172" result="shape"/>
</filter>
<filter id="filter4_b_160_172" x="113.5" y="113.5" width="16" height="16" filterUnits="userSpaceOnUse" color-interpolation-filters="sRGB">
<feFlood flood-opacity="0" result="BackgroundImageFix"/>
<feGaussianBlur in="BackgroundImageFix" stdDeviation="2"/>
<feComposite in2="SourceAlpha" operator="in" result="effect1_backgroundBlur_160_172"/>
<feBlend mode="normal" in="SourceGraphic" in2="effect1_backgroundBlur_160_172" result="shape"/>
</filter>
<filter id="filter5_b_160_172" x="426.5" y="277.5" width="16" height="16" filterUnits="userSpaceOnUse" color-interpolation-filters="sRGB">
<feFlood flood-opacity="0" result="BackgroundImageFix"/>
<feGaussianBlur in="BackgroundImageFix" stdDeviation="2"/>
<feComposite in2="SourceAlpha" operator="in" result="effect1_backgroundBlur_160_172"/>
<feBlend mode="normal" in="SourceGraphic" in2="effect1_backgroundBlur_160_172" result="shape"/>
</filter>
<filter id="filter6_b_160_172" x="476.5" y="227.5" width="16" height="16" filterUnits="userSpaceOnUse" color-interpolation-filters="sRGB">
<feFlood flood-opacity="0" result="BackgroundImageFix"/>
<feGaussianBlur in="BackgroundImageFix" stdDeviation="2"/>
<feComposite in2="SourceAlpha" operator="in" result="effect1_backgroundBlur_160_172"/>
<feBlend mode="normal" in="SourceGraphic" in2="effect1_backgroundBlur_160_172" result="shape"/>
</filter>
<filter id="filter7_b_160_172" x="519.5" y="184.5" width="16" height="16" filterUnits="userSpaceOnUse" color-interpolation-filters="sRGB">
<feFlood flood-opacity="0" result="BackgroundImageFix"/>
<feGaussianBlur in="BackgroundImageFix" stdDeviation="2"/>
<feComposite in2="SourceAlpha" operator="in" result="effect1_backgroundBlur_160_172"/>
<feBlend mode="normal" in="SourceGraphic" in2="effect1_backgroundBlur_160_172" result="shape"/>
</filter>
<filter id="filter8_b_160_172" x="557.5" y="146.5" width="16" height="16" filterUnits="userSpaceOnUse" color-interpolation-filters="sRGB">
<feFlood flood-opacity="0" result="BackgroundImageFix"/>
<feGaussianBlur in="BackgroundImageFix" stdDeviation="2"/>
<feComposite in2="SourceAlpha" operator="in" result="effect1_backgroundBlur_160_172"/>
<feBlend mode="normal" in="SourceGraphic" in2="effect1_backgroundBlur_160_172" result="shape"/>
</filter>
<filter id="filter9_b_160_172" x="589.5" y="113.5" width="16" height="16" filterUnits="userSpaceOnUse" color-interpolation-filters="sRGB">
<feFlood flood-opacity="0" result="BackgroundImageFix"/>
<feGaussianBlur in="BackgroundImageFix" stdDeviation="2"/>
<feComposite in2="SourceAlpha" operator="in" result="effect1_backgroundBlur_160_172"/>
<feBlend mode="normal" in="SourceGraphic" in2="effect1_backgroundBlur_160_172" result="shape"/>
</filter>
<filter id="filter10_b_160_172" x="350.5" y="245.5" width="16" height="16" filterUnits="userSpaceOnUse" color-interpolation-filters="sRGB">
<feFlood flood-opacity="0" result="BackgroundImageFix"/>
<feGaussianBlur in="BackgroundImageFix" stdDeviation="2"/>
<feComposite in2="SourceAlpha" operator="in" result="effect1_backgroundBlur_160_172"/>
<feBlend mode="normal" in="SourceGraphic" in2="effect1_backgroundBlur_160_172" result="shape"/>
</filter>
<filter id="filter11_b_160_172" x="350.5" y="175.5" width="16" height="16" filterUnits="userSpaceOnUse" color-interpolation-filters="sRGB">
<feFlood flood-opacity="0" result="BackgroundImageFix"/>
<feGaussianBlur in="BackgroundImageFix" stdDeviation="2"/>
<feComposite in2="SourceAlpha" operator="in" result="effect1_backgroundBlur_160_172"/>
<feBlend mode="normal" in="SourceGraphic" in2="effect1_backgroundBlur_160_172" result="shape"/>
</filter>
<filter id="filter12_b_160_172" x="350.5" y="113.5" width="16" height="16" filterUnits="userSpaceOnUse" color-interpolation-filters="sRGB">
<feFlood flood-opacity="0" result="BackgroundImageFix"/>
<feGaussianBlur in="BackgroundImageFix" stdDeviation="2"/>
<feComposite in2="SourceAlpha" operator="in" result="effect1_backgroundBlur_160_172"/>
<feBlend mode="normal" in="SourceGraphic" in2="effect1_backgroundBlur_160_172" result="shape"/>
</filter>
<filter id="filter13_b_160_172" x="350.5" y="59.5" width="16" height="16" filterUnits="userSpaceOnUse" color-interpolation-filters="sRGB">
<feFlood flood-opacity="0" result="BackgroundImageFix"/>
<feGaussianBlur in="BackgroundImageFix" stdDeviation="2"/>
<feComposite in2="SourceAlpha" operator="in" result="effect1_backgroundBlur_160_172"/>
<feBlend mode="normal" in="SourceGraphic" in2="effect1_backgroundBlur_160_172" result="shape"/>
</filter>
<filter id="filter14_b_160_172" x="10.2" y="10.2" width="699.6" height="699.6" filterUnits="userSpaceOnUse" color-interpolation-filters="sRGB">
<feFlood flood-opacity="0" result="BackgroundImageFix"/>
<feGaussianBlur in="BackgroundImageFix" stdDeviation="6.4"/>
<feComposite in2="SourceAlpha" operator="in" result="effect1_backgroundBlur_160_172"/>
<feBlend mode="normal" in="SourceGraphic" in2="effect1_backgroundBlur_160_172" result="shape"/>
</filter>
<filter id="filter15_b_160_172" x="-13.8" y="-13.8" width="746.6" height="746.6" filterUnits="userSpaceOnUse" color-interpolation-filters="sRGB">
<feFlood flood-opacity="0" result="BackgroundImageFix"/>
<feGaussianBlur in="BackgroundImageFix" stdDeviation="6.4"/>
<feComposite in2="SourceAlpha" operator="in" result="effect1_backgroundBlur_160_172"/>
<feBlend mode="normal" in="SourceGraphic" in2="effect1_backgroundBlur_160_172" result="shape"/>
</filter>
<filter id="filter16_bd_160_172" x="51.9" y="54.2" width="618.2" height="623.9" filterUnits="userSpaceOnUse" color-interpolation-filters="sRGB">
<feFlood flood-opacity="0" result="BackgroundImageFix"/>
<feGaussianBlur in="BackgroundImageFix" stdDeviation="6.4"/>
<feComposite in2="SourceAlpha" operator="in" result="effect1_backgroundBlur_160_172"/>
<feColorMatrix in="SourceAlpha" type="matrix" values="0 0 0 0 0 0 0 0 0 0 0 0 0 0 0 0 0 0 127 0" result="hardAlpha"/>
<feOffset dy="9"/>
<feGaussianBlur stdDeviation="8.05"/>
<feComposite in2="hardAlpha" operator="out"/>
<feColorMatrix type="matrix" values="0 0 0 0 0 0 0 0 0 0 0 0 0 0 0 0 0 0 0.75 0"/>
<feBlend mode="normal" in2="effect1_backgroundBlur_160_172" result="effect2_dropShadow_160_172"/>
<feBlend mode="normal" in="SourceGraphic" in2="effect2_dropShadow_160_172" result="shape"/>
</filter>
<filter id="filter17_b_160_172" x="109.2" y="109.2" width="500.6" height="500.6" filterUnits="userSpaceOnUse" color-interpolation-filters="sRGB">
<feFlood flood-opacity="0" result="BackgroundImageFix"/>
<feGaussianBlur in="BackgroundImageFix" stdDeviation="6.4"/>
<feComposite in2="SourceAlpha" operator="in" result="effect1_backgroundBlur_160_172"/>
<feBlend mode="normal" in="SourceGraphic" in2="effect1_backgroundBlur_160_172" result="shape"/>
</filter>
<filter id="filter18_b_160_172" x="170.2" y="170.2" width="379.6" height="379.6" filterUnits="userSpaceOnUse" color-interpolation-filters="sRGB">
<feFlood flood-opacity="0" result="BackgroundImageFix"/>
<feGaussianBlur in="BackgroundImageFix" stdDeviation="6.4"/>
<feComposite in2="SourceAlpha" operator="in" result="effect1_backgroundBlur_160_172"/>
<feBlend mode="normal" in="SourceGraphic" in2="effect1_backgroundBlur_160_172" result="shape"/>
</filter>
<filter id="filter19_b_160_172" x="240.2" y="240.2" width="239.6" height="239.6" filterUnits="userSpaceOnUse" color-interpolation-filters="sRGB">
<feFlood flood-opacity="0" result="BackgroundImageFix"/>
<feGaussianBlur in="BackgroundImageFix" stdDeviation="6.4"/>
<feComposite in2="SourceAlpha" operator="in" result="effect1_backgroundBlur_160_172"/>
<feBlend mode="normal" in="SourceGraphic" in2="effect1_backgroundBlur_160_172" result="shape"/>
</filter>
<filter id="filter20_b_160_172" x="31" y="179" width="70" height="44" filterUnits="userSpaceOnUse" color-interpolation-filters="sRGB">
<feFlood flood-opacity="0" result="BackgroundImageFix"/>
<feGaussianBlur in="BackgroundImageFix" stdDeviation="2"/>
<feComposite in2="SourceAlpha" operator="in" result="effect1_backgroundBlur_160_172"/>
<feBlend mode="normal" in="SourceGraphic" in2="effect1_backgroundBlur_160_172" result="shape"/>
</filter>
<filter id="filter21_f_160_172" x="55.2" y="164.2" width="104.6" height="106.6" filterUnits="userSpaceOnUse" color-interpolation-filters="sRGB">
<feFlood flood-opacity="0" result="BackgroundImageFix"/>
<feBlend mode="normal" in="SourceGraphic" in2="BackgroundImageFix" result="shape"/>
<feGaussianBlur stdDeviation="15.4" result="effect1_foregroundBlur_160_172"/>
</filter>
<filter id="filter22_b_160_172" x="305" y="2" width="108" height="44" filterUnits="userSpaceOnUse" color-interpolation-filters="sRGB">
<feFlood flood-opacity="0" result="BackgroundImageFix"/>
<feGaussianBlur in="BackgroundImageFix" stdDeviation="2"/>
<feComposite in2="SourceAlpha" operator="in" result="effect1_backgroundBlur_160_172"/>
<feBlend mode="normal" in="SourceGraphic" in2="effect1_backgroundBlur_160_172" result="shape"/>
</filter>
<filter id="filter23_f_160_172" x="279.2" y="-13.8" width="159.6" height="106.6" filterUnits="userSpaceOnUse" color-interpolation-filters="sRGB">
<feFlood flood-opacity="0" result="BackgroundImageFix"/>
<feBlend mode="normal" in="SourceGraphic" in2="BackgroundImageFix" result="shape"/>
<feGaussianBlur stdDeviation="15.4" result="effect1_foregroundBlur_160_172"/>
</filter>
<filter id="filter24_b_160_172" x="328" y="231" width="61" height="44" filterUnits="userSpaceOnUse" color-interpolation-filters="sRGB">
<feFlood flood-opacity="0" result="BackgroundImageFix"/>
<feGaussianBlur in="BackgroundImageFix" stdDeviation="2"/>
<feComposite in2="SourceAlpha" operator="in" result="effect1_backgroundBlur_160_172"/>
<feBlend mode="normal" in="SourceGraphic" in2="effect1_backgroundBlur_160_172" result="shape"/>
</filter>
<filter id="filter25_f_160_172" x="306.2" y="209.2" width="104.6" height="106.6" filterUnits="userSpaceOnUse" color-interpolation-filters="sRGB">
<feFlood flood-opacity="0" result="BackgroundImageFix"/>
<feBlend mode="normal" in="SourceGraphic" in2="BackgroundImageFix" result="shape"/>
<feGaussianBlur stdDeviation="15.4" result="effect1_foregroundBlur_160_172"/>
</filter>
<filter id="filter26_b_160_172" x="592" y="179" width="120" height="44" filterUnits="userSpaceOnUse" color-interpolation-filters="sRGB">
<feFlood flood-opacity="0" result="BackgroundImageFix"/>
<feGaussianBlur in="BackgroundImageFix" stdDeviation="2"/>
<feComposite in2="SourceAlpha" operator="in" result="effect1_backgroundBlur_160_172"/>
<feBlend mode="normal" in="SourceGraphic" in2="effect1_backgroundBlur_160_172" result="shape"/>
</filter>
<filter id="filter27_f_160_172" x="544.2" y="163.2" width="104.6" height="106.6" filterUnits="userSpaceOnUse" color-interpolation-filters="sRGB">
<feFlood flood-opacity="0" result="BackgroundImageFix"/>
<feBlend mode="normal" in="SourceGraphic" in2="BackgroundImageFix" result="shape"/>
<feGaussianBlur stdDeviation="15.4" result="effect1_foregroundBlur_160_172"/>
</filter>
<filter id="filter28_b_160_172" x="124" y="221" width="62" height="44" filterUnits="userSpaceOnUse" color-interpolation-filters="sRGB">
<feFlood flood-opacity="0" result="BackgroundImageFix"/>
<feGaussianBlur in="BackgroundImageFix" stdDeviation="2"/>
<feComposite in2="SourceAlpha" operator="in" result="effect1_backgroundBlur_160_172"/>
<feBlend mode="normal" in="SourceGraphic" in2="effect1_backgroundBlur_160_172" result="shape"/>
</filter>
<filter id="filter29_f_160_172" x="128.2" y="205.2" width="104.6" height="106.6" filterUnits="userSpaceOnUse" color-interpolation-filters="sRGB">
<feFlood flood-opacity="0" result="BackgroundImageFix"/>
<feBlend mode="normal" in="SourceGraphic" in2="BackgroundImageFix" result="shape"/>
<feGaussianBlur stdDeviation="15.4" result="effect1_foregroundBlur_160_172"/>
</filter>
<filter id="filter30_b_160_172" x="323" y="96" width="72" height="44" filterUnits="userSpaceOnUse" color-interpolation-filters="sRGB">
<feFlood flood-opacity="0" result="BackgroundImageFix"/>
<feGaussianBlur in="BackgroundImageFix" stdDeviation="2"/>
<feComposite in2="SourceAlpha" operator="in" result="effect1_backgroundBlur_160_172"/>
<feBlend mode="normal" in="SourceGraphic" in2="effect1_backgroundBlur_160_172" result="shape"/>
</filter>
<filter id="filter31_f_160_172" x="307.2" y="81.2" width="104.6" height="106.6" filterUnits="userSpaceOnUse" color-interpolation-filters="sRGB">
<feFlood flood-opacity="0" result="BackgroundImageFix"/>
<feBlend mode="normal" in="SourceGraphic" in2="BackgroundImageFix" result="shape"/>
<feGaussianBlur stdDeviation="15.4" result="effect1_foregroundBlur_160_172"/>
</filter>
<filter id="filter32_b_160_172" x="531" y="221" width="75" height="44" filterUnits="userSpaceOnUse" color-interpolation-filters="sRGB">
<feFlood flood-opacity="0" result="BackgroundImageFix"/>
<feGaussianBlur in="BackgroundImageFix" stdDeviation="2"/>
<feComposite in2="SourceAlpha" operator="in" result="effect1_backgroundBlur_160_172"/>
<feBlend mode="normal" in="SourceGraphic" in2="effect1_backgroundBlur_160_172" result="shape"/>
</filter>
<filter id="filter33_f_160_172" x="483.2" y="205.2" width="105.6" height="106.6" filterUnits="userSpaceOnUse" color-interpolation-filters="sRGB">
<feFlood flood-opacity="0" result="BackgroundImageFix"/>
<feBlend mode="normal" in="SourceGraphic" in2="BackgroundImageFix" result="shape"/>
<feGaussianBlur stdDeviation="15.4" result="effect1_foregroundBlur_160_172"/>
</filter>
<filter id="filter34_f_160_172" x="233.4" y="217.4" width="250.2" height="206.2" filterUnits="userSpaceOnUse" color-interpolation-filters="sRGB">
<feFlood flood-opacity="0" result="BackgroundImageFix"/>
<feBlend mode="normal" in="SourceGraphic" in2="BackgroundImageFix" result="shape"/>
<feGaussianBlur stdDeviation="47.8" result="effect1_foregroundBlur_160_172"/>
</filter>
<filter id="filter35_b_160_172" x="21.9999" y="22.9999" width="586.97" height="353.61" filterUnits="userSpaceOnUse" color-interpolation-filters="sRGB">
<feFlood flood-opacity="0" result="BackgroundImageFix"/>
<feGaussianBlur in="BackgroundImageFix" stdDeviation="0.5"/>
<feComposite in2="SourceAlpha" operator="in" result="effect1_backgroundBlur_160_172"/>
<feBlend mode="normal" in="SourceGraphic" in2="effect1_backgroundBlur_160_172" result="shape"/>
</filter>
<filter id="filter36_f_160_172" x="316.664" y="92.6298" width="333.172" height="310.24" filterUnits="userSpaceOnUse" color-interpolation-filters="sRGB">
<feFlood flood-opacity="0" result="BackgroundImageFix"/>
<feBlend mode="normal" in="SourceGraphic" in2="BackgroundImageFix" result="shape"/>
<feGaussianBlur stdDeviation="21" result="effect1_foregroundBlur_160_172"/>
</filter>
<linearGradient id="paint0_linear_160_172" x1="360" y1="696" x2="360" y2="24" gradientUnits="userSpaceOnUse">
<stop stop-color="#CCCCCC" stop-opacity="0"/>
<stop offset="1" stop-color="#CCCCCC"/>
</linearGradient>
<linearGradient id="paint1_linear_160_172" x1="361" y1="652" x2="361" y2="68" gradientUnits="userSpaceOnUse">
<stop stop-color="#CCCCCC" stop-opacity="0"/>
<stop offset="1" stop-color="#CCCCCC"/>
</linearGradient>
<linearGradient id="paint2_linear_160_172" x1="359.5" y1="596" x2="359.5" y2="123" gradientUnits="userSpaceOnUse">
<stop stop-color="#CCCCCC" stop-opacity="0"/>
<stop offset="1" stop-color="#CCCCCC"/>
</linearGradient>
<linearGradient id="paint3_linear_160_172" x1="360" y1="536" x2="360" y2="184" gradientUnits="userSpaceOnUse">
<stop stop-color="#CCCCCC" stop-opacity="0"/>
<stop offset="1" stop-color="#CCCCCC"/>
</linearGradient>
<linearGradient id="paint4_linear_160_172" x1="360" y1="466" x2="360" y2="254" gradientUnits="userSpaceOnUse">
<stop stop-color="#CCCCCC" stop-opacity="0"/>
<stop offset="1" stop-color="#CCCCCC"/>
</linearGradient>
<linearGradient id="paint5_linear_160_172" x1="66" y1="196.5" x2="76.7256" y2="207.974" gradientUnits="userSpaceOnUse">
<stop stop-color="#4DFF7E" stop-opacity="0"/>
<stop offset="1" stop-color="#4DFF7E"/>
</linearGradient>
<linearGradient id="paint6_linear_160_172" x1="359" y1="19.5" x2="368.269" y2="35.6952" gradientUnits="userSpaceOnUse">
<stop offset="0.670548" stop-color="#4DFF7E" stop-opacity="0"/>
<stop offset="1" stop-color="#4DFF7E"/>
</linearGradient>
<linearGradient id="paint7_linear_160_172" x1="359" y1="251.5" x2="357.266" y2="269.836" gradientUnits="userSpaceOnUse">
<stop stop-color="#4DFF7E" stop-opacity="0"/>
<stop offset="1" stop-color="#4DFF7E"/>
</linearGradient>
<linearGradient id="paint8_linear_160_172" x1="663.5" y1="201" x2="629.187" y2="242.268" gradientUnits="userSpaceOnUse">
<stop stop-color="#4DFF7E" stop-opacity="0"/>
<stop offset="1" stop-color="#4DFF7E"/>
</linearGradient>
<linearGradient id="paint9_linear_160_172" x1="167.338" y1="244.311" x2="183.909" y2="258.751" gradientUnits="userSpaceOnUse">
<stop stop-color="#4DFF7E" stop-opacity="0"/>
<stop offset="1" stop-color="#4DFF7E"/>
</linearGradient>
<linearGradient id="paint10_linear_160_172" x1="359" y1="122.5" x2="360.196" y2="134.884" gradientUnits="userSpaceOnUse">
<stop stop-color="#4DFF7E" stop-opacity="0"/>
<stop offset="1" stop-color="#4DFF7E"/>
</linearGradient>
<linearGradient id="paint11_linear_160_172" x1="568.5" y1="238.5" x2="560.156" y2="260.7" gradientUnits="userSpaceOnUse">
<stop stop-color="#4DFF7E" stop-opacity="0"/>
<stop offset="1" stop-color="#4DFF7E"/>
</linearGradient>
<linearGradient id="paint12_linear_160_172" x1="695" y1="360" x2="23" y2="360" gradientUnits="userSpaceOnUse">
<stop stop-color="#4DFF7E"/>
<stop offset="0.800265" stop-color="#4DFF7E" stop-opacity="0"/>
</linearGradient>
<clipPath id="clip0_160_172">
<rect width="719" height="359.5" fill="white"/>
</clipPath>
<clipPath id="clip1_160_172">
<path d="M36 201C36 191.611 43.6112 184 53 184H79C88.3888 184 96 191.611 96 201V201C96 210.389 88.3888 218 79 218H53C43.6112 218 36 210.389 36 201V201Z" fill="white"/>
</clipPath>
<clipPath id="clip2_160_172">
<path d="M310 24C310 14.6112 317.611 7 327 7H391C400.389 7 408 14.6112 408 24V24C408 33.3888 400.389 41 391 41H327C317.611 41 310 33.3888 310 24V24Z" fill="white"/>
</clipPath>
<clipPath id="clip3_160_172">
<path d="M333 253C333 243.611 340.611 236 350 236H367C376.389 236 384 243.611 384 253V253C384 262.389 376.389 270 367 270H350C340.611 270 333 262.389 333 253V253Z" fill="white"/>
</clipPath>
<clipPath id="clip4_160_172">
<path d="M597 201C597 191.611 604.611 184 614 184H690C699.389 184 707 191.611 707 201V201C707 210.389 699.389 218 690 218H614C604.611 218 597 210.389 597 201V201Z" fill="white"/>
</clipPath>
<clipPath id="clip5_160_172">
<path d="M129 243C129 233.611 136.611 226 146 226H164C173.389 226 181 233.611 181 243V243C181 252.389 173.389 260 164 260H146C136.611 260 129 252.389 129 243V243Z" fill="white"/>
</clipPath>
<clipPath id="clip6_160_172">
<path d="M328 118C328 108.611 335.611 101 345 101H373C382.389 101 390 108.611 390 118V118C390 127.389 382.389 135 373 135H345C335.611 135 328 127.389 328 118V118Z" fill="white"/>
</clipPath>
<clipPath id="clip7_160_172">
<path d="M536 243C536 233.611 543.611 226 553 226H584C593.389 226 601 233.611 601 243V243C601 252.389 593.389 260 584 260H553C543.611 260 536 252.389 536 243V243Z" fill="white"/>
</clipPath>
</defs>
</svg>
