<svg width="36" height="35" viewBox="0 0 36 35" fill="none" xmlns="http://www.w3.org/2000/svg">
<g filter="url(#filter0_bi_50_852)">
<path d="M16.7229 2.96653C17.1333 2.13516 17.3384 1.71948 17.617 1.58666C17.8594 1.47111 18.1409 1.47111 18.3833 1.58666C18.6618 1.71948 18.867 2.13516 19.2774 2.96653L23.1707 10.854C23.2919 11.0994 23.3524 11.2221 23.441 11.3174C23.5193 11.4018 23.6133 11.4701 23.7178 11.5187C23.8357 11.5735 23.9711 11.5933 24.2419 11.6329L32.9507 12.9058C33.8678 13.0399 34.3263 13.1069 34.5385 13.3309C34.7231 13.5258 34.81 13.7935 34.7748 14.0597C34.7344 14.3656 34.4025 14.6889 33.7385 15.3356L27.4392 21.4712C27.2428 21.6624 27.1446 21.7581 27.0813 21.8718C27.0252 21.9726 26.9892 22.0833 26.9753 22.1977C26.9596 22.327 26.9828 22.4621 27.0291 22.7323L28.5155 31.3985C28.6723 32.3126 28.7507 32.7696 28.6033 33.0408C28.4752 33.2768 28.2473 33.4423 27.9833 33.4912C27.6799 33.5475 27.2695 33.3316 26.4486 32.9L18.6631 28.8057C18.4205 28.6781 18.2992 28.6143 18.1715 28.5892C18.0583 28.567 17.942 28.567 17.8288 28.5892C17.701 28.6143 17.5797 28.6781 17.3372 28.8057L9.55163 32.9C8.73082 33.3316 8.32042 33.5475 8.01695 33.4912C7.75293 33.4423 7.5251 33.2768 7.39693 33.0408C7.24962 32.7696 7.32801 32.3126 7.48478 31.3985L8.97113 22.7323C9.01747 22.4621 9.04064 22.327 9.02496 22.1977C9.01108 22.0833 8.9751 21.9726 8.919 21.8718C8.85565 21.7581 8.75746 21.6624 8.56109 21.4712L2.26174 15.3356C1.5978 14.6889 1.26584 14.3656 1.22544 14.0597C1.1903 13.7935 1.27713 13.5258 1.46175 13.3309C1.67396 13.1069 2.1325 13.0399 3.04957 12.9058L11.7583 11.6329C12.0292 11.5933 12.1646 11.5735 12.2825 11.5187C12.3869 11.4701 12.4809 11.4018 12.5593 11.3174C12.6478 11.2221 12.7084 11.0994 12.8296 10.854L16.7229 2.96653Z" fill="#1B1B1B" fill-opacity="0.3"/>
<path d="M1.09878 12.987L1.46175 13.3309L1.09878 12.987C0.810456 13.2913 0.67486 13.7095 0.729747 14.1251C0.769868 14.429 0.945738 14.6797 1.12984 14.8949C1.31577 15.1122 1.57826 15.3679 1.89514 15.6765L1.91287 15.6938L8.21222 21.8293L8.56109 21.4712L8.21222 21.8293C8.43049 22.0419 8.46277 22.0803 8.48215 22.1151C8.50674 22.1592 8.52252 22.2078 8.5286 22.2579C8.5334 22.2975 8.52984 22.3475 8.47833 22.6478L6.99197 31.314L6.98779 31.3384C6.91296 31.7746 6.85097 32.136 6.82838 32.4213C6.80602 32.7037 6.81124 33.0101 6.95756 33.2795C7.15771 33.6479 7.5135 33.9064 7.92582 33.9828C8.22724 34.0387 8.52023 33.949 8.78191 33.8404C9.04616 33.7307 9.37059 33.5601 9.76225 33.3541L9.78436 33.3425L17.5699 29.2482C17.8395 29.1064 17.8859 29.0876 17.925 29.0799C17.9746 29.0702 18.0256 29.0702 18.0752 29.0799C18.1143 29.0876 18.1608 29.1064 18.4304 29.2482L26.2159 33.3425L26.2381 33.3542C26.6297 33.5601 26.9541 33.7308 27.2184 33.8404C27.48 33.949 27.773 34.0387 28.0745 33.9828C28.4868 33.9064 28.8426 33.6479 29.0427 33.2795C29.189 33.0101 29.1943 32.7037 29.1719 32.4213C29.1493 32.136 29.0873 31.7747 29.0125 31.3385L29.0083 31.314L27.5219 22.6478C27.4704 22.3475 27.4669 22.2975 27.4717 22.2579C27.4778 22.2078 27.4935 22.1592 27.5181 22.1151C27.5375 22.0803 27.5698 22.0419 27.788 21.8293L34.0874 15.6938L34.1052 15.6765C34.422 15.3678 34.6845 15.1122 34.8704 14.8949C35.0545 14.6797 35.2304 14.429 35.2705 14.1252C35.3254 13.7095 35.1898 13.2913 34.9015 12.987C34.6907 12.7645 34.4012 12.6647 34.1258 12.5985C33.8478 12.5316 33.4852 12.4786 33.0475 12.4147L33.023 12.4111L24.3143 11.1382C24.0132 11.0942 23.9647 11.0821 23.9286 11.0653C23.8828 11.044 23.8416 11.0141 23.8073 10.9771C23.7802 10.9479 23.7537 10.9055 23.6191 10.6327L19.7257 2.74522L19.7148 2.72303C19.5189 2.32623 19.3567 1.99755 19.2073 1.75357C19.0594 1.51199 18.8751 1.26726 18.5985 1.13534L18.3833 1.58666L18.5985 1.13534C18.22 0.954887 17.7803 0.954887 17.4018 1.13534L17.617 1.58666L17.4018 1.13534C17.1251 1.26726 16.9408 1.51199 16.7929 1.75357C16.6436 1.99755 16.4813 2.32622 16.2855 2.723L16.2745 2.74522L12.3812 10.6327C12.2466 10.9055 12.2201 10.9479 12.193 10.9771L12.5593 11.3174L12.193 10.9771C12.1587 11.0141 12.1175 11.044 12.0717 11.0653C12.0356 11.0821 11.987 11.0942 11.686 11.1382L2.97725 12.4111L2.95279 12.4147C2.51509 12.4786 2.15251 12.5316 1.87444 12.5985C1.59909 12.6647 1.30954 12.7645 1.09878 12.987Z" stroke="#1C1C1C"/>
<path d="M1.09878 12.987L1.46175 13.3309L1.09878 12.987C0.810456 13.2913 0.67486 13.7095 0.729747 14.1251C0.769868 14.429 0.945738 14.6797 1.12984 14.8949C1.31577 15.1122 1.57826 15.3679 1.89514 15.6765L1.91287 15.6938L8.21222 21.8293L8.56109 21.4712L8.21222 21.8293C8.43049 22.0419 8.46277 22.0803 8.48215 22.1151C8.50674 22.1592 8.52252 22.2078 8.5286 22.2579C8.5334 22.2975 8.52984 22.3475 8.47833 22.6478L6.99197 31.314L6.98779 31.3384C6.91296 31.7746 6.85097 32.136 6.82838 32.4213C6.80602 32.7037 6.81124 33.0101 6.95756 33.2795C7.15771 33.6479 7.5135 33.9064 7.92582 33.9828C8.22724 34.0387 8.52023 33.949 8.78191 33.8404C9.04616 33.7307 9.37059 33.5601 9.76225 33.3541L9.78436 33.3425L17.5699 29.2482C17.8395 29.1064 17.8859 29.0876 17.925 29.0799C17.9746 29.0702 18.0256 29.0702 18.0752 29.0799C18.1143 29.0876 18.1608 29.1064 18.4304 29.2482L26.2159 33.3425L26.2381 33.3542C26.6297 33.5601 26.9541 33.7308 27.2184 33.8404C27.48 33.949 27.773 34.0387 28.0745 33.9828C28.4868 33.9064 28.8426 33.6479 29.0427 33.2795C29.189 33.0101 29.1943 32.7037 29.1719 32.4213C29.1493 32.136 29.0873 31.7747 29.0125 31.3385L29.0083 31.314L27.5219 22.6478C27.4704 22.3475 27.4669 22.2975 27.4717 22.2579C27.4778 22.2078 27.4935 22.1592 27.5181 22.1151C27.5375 22.0803 27.5698 22.0419 27.788 21.8293L34.0874 15.6938L34.1052 15.6765C34.422 15.3678 34.6845 15.1122 34.8704 14.8949C35.0545 14.6797 35.2304 14.429 35.2705 14.1252C35.3254 13.7095 35.1898 13.2913 34.9015 12.987C34.6907 12.7645 34.4012 12.6647 34.1258 12.5985C33.8478 12.5316 33.4852 12.4786 33.0475 12.4147L33.023 12.4111L24.3143 11.1382C24.0132 11.0942 23.9647 11.0821 23.9286 11.0653C23.8828 11.044 23.8416 11.0141 23.8073 10.9771C23.7802 10.9479 23.7537 10.9055 23.6191 10.6327L19.7257 2.74522L19.7148 2.72303C19.5189 2.32623 19.3567 1.99755 19.2073 1.75357C19.0594 1.51199 18.8751 1.26726 18.5985 1.13534L18.3833 1.58666L18.5985 1.13534C18.22 0.954887 17.7803 0.954887 17.4018 1.13534L17.617 1.58666L17.4018 1.13534C17.1251 1.26726 16.9408 1.51199 16.7929 1.75357C16.6436 1.99755 16.4813 2.32622 16.2855 2.723L16.2745 2.74522L12.3812 10.6327C12.2466 10.9055 12.2201 10.9479 12.193 10.9771L12.5593 11.3174L12.193 10.9771C12.1587 11.0141 12.1175 11.044 12.0717 11.0653C12.0356 11.0821 11.987 11.0942 11.686 11.1382L2.97725 12.4111L2.95279 12.4147C2.51509 12.4786 2.15251 12.5316 1.87444 12.5985C1.59909 12.6647 1.30954 12.7645 1.09878 12.987Z" stroke="url(#paint0_linear_50_852)" stroke-opacity="0.21"/>
</g>
<defs>
<filter id="filter0_bi_50_852" x="-3.78223" y="-3.5" width="43.5649" height="41.9999" filterUnits="userSpaceOnUse" color-interpolation-filters="sRGB">
<feFlood flood-opacity="0" result="BackgroundImageFix"/>
<feGaussianBlur in="BackgroundImageFix" stdDeviation="2"/>
<feComposite in2="SourceAlpha" operator="in" result="effect1_backgroundBlur_50_852"/>
<feBlend mode="normal" in="SourceGraphic" in2="effect1_backgroundBlur_50_852" result="shape"/>
<feColorMatrix in="SourceAlpha" type="matrix" values="0 0 0 0 0 0 0 0 0 0 0 0 0 0 0 0 0 0 127 0" result="hardAlpha"/>
<feOffset dy="4"/>
<feGaussianBlur stdDeviation="2"/>
<feComposite in2="hardAlpha" operator="arithmetic" k2="-1" k3="1"/>
<feColorMatrix type="matrix" values="0 0 0 0 0.0881633 0 0 0 0 0.108972 0 0 0 0 0.0933655 0 0 0 0.4 0"/>
<feBlend mode="normal" in2="shape" result="effect2_innerShadow_50_852"/>
</filter>
<linearGradient id="paint0_linear_50_852" x1="18.0001" y1="33.5" x2="18.0001" y2="1.5" gradientUnits="userSpaceOnUse">
<stop stop-color="#CCCCCC" stop-opacity="0"/>
<stop offset="1" stop-color="#CCCCCC"/>
</linearGradient>
</defs>
</svg>
