<svg width="35" height="35" viewBox="0 0 35 35" fill="none" xmlns="http://www.w3.org/2000/svg">
<g filter="url(#filter0_bi_50_845)">
<path d="M17.5 33.5C26.3366 33.5 33.5 26.3366 33.5 17.5C33.5 8.66344 26.3366 1.5 17.5 1.5C8.66344 1.5 1.5 8.66344 1.5 17.5C1.5 26.3366 8.66344 33.5 17.5 33.5Z" fill="#1B1B1B" fill-opacity="0.3"/>
<path d="M23.1 12.7C23.1 13.1418 22.7418 13.5 22.3 13.5C21.8582 13.5 21.5 13.1418 21.5 12.7C21.5 12.2582 21.8582 11.9 22.3 11.9C22.7418 11.9 23.1 12.2582 23.1 12.7Z" fill="#333333"/>
<path d="M13.5 12.7C13.5 13.1418 13.1418 13.5 12.7 13.5C12.2582 13.5 11.9 13.1418 11.9 12.7C11.9 12.2582 12.2582 11.9 12.7 11.9C13.1418 11.9 13.5 12.2582 13.5 12.7Z" fill="#333333"/>
<path d="M17.5 26.3C21.4011 26.3 24.5401 23.5115 24.6941 20.8998C24.7006 20.7895 24.6105 20.7 24.5 20.7H10.5C10.3895 20.7 10.2994 20.7895 10.3059 20.8998C10.4599 23.5115 13.5989 26.3 17.5 26.3Z" fill="#1B1B1B" fill-opacity="0.3"/>
<path d="M17.5 33.5C26.3366 33.5 33.5 26.3366 33.5 17.5C33.5 8.66344 26.3366 1.5 17.5 1.5C8.66344 1.5 1.5 8.66344 1.5 17.5C1.5 26.3366 8.66344 33.5 17.5 33.5Z" stroke="#1C1C1C" stroke-width="1.3"/>
<path d="M17.5 33.5C26.3366 33.5 33.5 26.3366 33.5 17.5C33.5 8.66344 26.3366 1.5 17.5 1.5C8.66344 1.5 1.5 8.66344 1.5 17.5C1.5 26.3366 8.66344 33.5 17.5 33.5Z" stroke="url(#paint0_linear_50_845)" stroke-opacity="0.21" stroke-width="1.3"/>
<path d="M23.1 12.7C23.1 13.1418 22.7418 13.5 22.3 13.5C21.8582 13.5 21.5 13.1418 21.5 12.7C21.5 12.2582 21.8582 11.9 22.3 11.9C22.7418 11.9 23.1 12.2582 23.1 12.7Z" stroke="#1C1C1C" stroke-width="1.3"/>
<path d="M23.1 12.7C23.1 13.1418 22.7418 13.5 22.3 13.5C21.8582 13.5 21.5 13.1418 21.5 12.7C21.5 12.2582 21.8582 11.9 22.3 11.9C22.7418 11.9 23.1 12.2582 23.1 12.7Z" stroke="url(#paint1_linear_50_845)" stroke-opacity="0.21" stroke-width="1.3"/>
<path d="M13.5 12.7C13.5 13.1418 13.1418 13.5 12.7 13.5C12.2582 13.5 11.9 13.1418 11.9 12.7C11.9 12.2582 12.2582 11.9 12.7 11.9C13.1418 11.9 13.5 12.2582 13.5 12.7Z" stroke="#1C1C1C" stroke-width="1.3"/>
<path d="M13.5 12.7C13.5 13.1418 13.1418 13.5 12.7 13.5C12.2582 13.5 11.9 13.1418 11.9 12.7C11.9 12.2582 12.2582 11.9 12.7 11.9C13.1418 11.9 13.5 12.2582 13.5 12.7Z" stroke="url(#paint2_linear_50_845)" stroke-opacity="0.21" stroke-width="1.3"/>
<path d="M17.5 26.3C21.4011 26.3 24.5401 23.5115 24.6941 20.8998C24.7006 20.7895 24.6105 20.7 24.5 20.7H10.5C10.3895 20.7 10.2994 20.7895 10.3059 20.8998C10.4599 23.5115 13.5989 26.3 17.5 26.3Z" stroke="#1C1C1C" stroke-width="1.3"/>
<path d="M17.5 26.3C21.4011 26.3 24.5401 23.5115 24.6941 20.8998C24.7006 20.7895 24.6105 20.7 24.5 20.7H10.5C10.3895 20.7 10.2994 20.7895 10.3059 20.8998C10.4599 23.5115 13.5989 26.3 17.5 26.3Z" stroke="url(#paint3_linear_50_845)" stroke-opacity="0.21" stroke-width="1.3"/>
</g>
<defs>
<filter id="filter0_bi_50_845" x="-3.1499" y="-3.15002" width="41.2998" height="41.3" filterUnits="userSpaceOnUse" color-interpolation-filters="sRGB">
<feFlood flood-opacity="0" result="BackgroundImageFix"/>
<feGaussianBlur in="BackgroundImageFix" stdDeviation="2"/>
<feComposite in2="SourceAlpha" operator="in" result="effect1_backgroundBlur_50_845"/>
<feBlend mode="normal" in="SourceGraphic" in2="effect1_backgroundBlur_50_845" result="shape"/>
<feColorMatrix in="SourceAlpha" type="matrix" values="0 0 0 0 0 0 0 0 0 0 0 0 0 0 0 0 0 0 127 0" result="hardAlpha"/>
<feOffset dy="4"/>
<feGaussianBlur stdDeviation="2"/>
<feComposite in2="hardAlpha" operator="arithmetic" k2="-1" k3="1"/>
<feColorMatrix type="matrix" values="0 0 0 0 0.0881633 0 0 0 0 0.108972 0 0 0 0 0.0933655 0 0 0 0.4 0"/>
<feBlend mode="normal" in2="shape" result="effect2_innerShadow_50_845"/>
</filter>
<linearGradient id="paint0_linear_50_845" x1="17.5" y1="33.5" x2="17.5" y2="1.5" gradientUnits="userSpaceOnUse">
<stop stop-color="#CCCCCC" stop-opacity="0"/>
<stop offset="1" stop-color="#CCCCCC"/>
</linearGradient>
<linearGradient id="paint1_linear_50_845" x1="17.5" y1="33.5" x2="17.5" y2="1.5" gradientUnits="userSpaceOnUse">
<stop stop-color="#CCCCCC" stop-opacity="0"/>
<stop offset="1" stop-color="#CCCCCC"/>
</linearGradient>
<linearGradient id="paint2_linear_50_845" x1="17.5" y1="33.5" x2="17.5" y2="1.5" gradientUnits="userSpaceOnUse">
<stop stop-color="#CCCCCC" stop-opacity="0"/>
<stop offset="1" stop-color="#CCCCCC"/>
</linearGradient>
<linearGradient id="paint3_linear_50_845" x1="17.5" y1="33.5" x2="17.5" y2="1.5" gradientUnits="userSpaceOnUse">
<stop stop-color="#CCCCCC" stop-opacity="0"/>
<stop offset="1" stop-color="#CCCCCC"/>
</linearGradient>
</defs>
</svg>
